<?xml version="1.0" standalone="no"?>
<svg xmlns="http://www.w3.org/2000/svg" xmlns:xlink="http://www.w3.org/1999/xlink" width="847pt" height="430pt" viewBox="0.00 0.00 846.9 430">
<g id="graph0" class="graph" transform="translate(4,426) scale(1)" data-name="">
<polygon fill="white" stroke="none" points="-4,4 -4,-426 842.9,-426 842.9,4 -4,4"/>
<g id="clust1" class="cluster" data-name="cluster_r">

<polygon fill="none" stroke="black" stroke-width="0" points="3,-131 3,-192 68,-192 68,-131 3,-131"/>
<text text-anchor="middle" x="35.5" y="-139.2" font-family="Times,serif" font-size="14.00">bound=7</text>
</g><g id="clust24" class="cluster" data-name="cluster_r1_1a0_2i0_3r">

<polygon fill="none" stroke="black" stroke-width="0" points="586.56,-77 586.56,-138 640.56,-138 640.56,-77 586.56,-77" style=""/>
<text text-anchor="middle" x="613.56" y="-85.2" font-family="Times,serif" font-size="14.00" style="">2</text>
</g>
<g id="clust23" class="cluster" data-name="cluster_r1_1a0_2i0_3">

<polygon fill="none" stroke="black" stroke-width="0" points="487.22,-77 487.22,-138 541.22,-138 541.22,-77 487.22,-77" style=""/>
<text text-anchor="middle" x="514.22" y="-85.2" font-family="Times,serif" font-size="14.00" style="">2</text>
</g>
<g id="clust2" class="cluster" data-name="cluster_r0_0">

<polygon fill="none" stroke="black" stroke-width="0" points="105,-166 105,-227 159,-227 159,-166 105,-166"/>
<text text-anchor="middle" x="132" y="-174.2" font-family="Times,serif" font-size="14.00">5</text>
</g><g id="clust26" class="cluster" data-name="cluster_r1_1e0_2">

<polygon fill="none" stroke="black" stroke-width="0" points="296.11,-8 296.11,-69 350.11,-69 350.11,-8 296.11,-8" style=""/>
<text text-anchor="middle" x="323.11" y="-16.2" font-family="Times,serif" font-size="14.00" style="">2</text>
</g>
<g id="clust27" class="cluster" data-name="cluster_r1_1e0_2i">

<polygon fill="none" stroke="black" stroke-width="0" points="396.22,-8 396.22,-69 450.22,-69 450.22,-8 396.22,-8" style=""/>
<text text-anchor="middle" x="423.22" y="-16.2" font-family="Times,serif" font-size="14.00" style="">2</text>
</g>
<g id="clust21" class="cluster" data-name="cluster_r1_1a0_2">

<polygon fill="none" stroke="black" stroke-width="0" points="296.11,-77 296.11,-138 350.11,-138 350.11,-77 296.11,-77" style=""/>
<text text-anchor="middle" x="323.11" y="-85.2" font-family="Times,serif" font-size="14.00" style="">2</text>
</g>


<g id="clust22" class="cluster" data-name="cluster_r1_1a0_2i">

<polygon fill="none" stroke="black" stroke-width="0" points="396.22,-77 396.22,-138 450.22,-138 450.22,-77 396.22,-77" style=""/>
<text text-anchor="middle" x="423.22" y="-85.2" font-family="Times,serif" font-size="14.00" style="">2</text>
</g>
<g id="clust25" class="cluster" data-name="cluster_r1_1e">

<polygon fill="none" stroke="black" stroke-width="0" points="205.11,-8 205.11,-69 259.11,-69 259.11,-8 205.11,-8" style=""/>
<text text-anchor="middle" x="232.11" y="-16.2" font-family="Times,serif" font-size="14.00" style="">2</text>
</g>
<g id="clust20" class="cluster" data-name="cluster_r1_1a">

<polygon fill="none" stroke="black" stroke-width="0" points="205.11,-77 205.11,-138 259.11,-138 259.11,-77 205.11,-77" style=""/>
<text text-anchor="middle" x="232.11" y="-85.2" font-family="Times,serif" font-size="14.00" style="">2</text>
</g>
<g id="clust18" class="cluster" data-name="cluster_r0_0t0_1e1_3r">

<polygon fill="none" stroke="black" stroke-width="0" points="586.56,-146 586.56,-207 640.56,-207 640.56,-146 586.56,-146" style=""/>
<text text-anchor="middle" x="613.56" y="-154.2" font-family="Times,serif" font-size="14.00" style="">1</text>
</g>
<g id="clust4" class="cluster" data-name="cluster_r0_0t0_1">

<polygon fill="none" stroke="black" stroke-width="0" points="296.11,-185 296.11,-246 350.11,-246 350.11,-185 296.11,-185" style=""/>
<text text-anchor="middle" x="323.11" y="-193.2" font-family="Times,serif" font-size="14.00" style="">5</text>
</g>
<g id="clust5" class="cluster" data-name="cluster_r0_0t0_1a">

<polygon fill="none" stroke="black" stroke-width="0" points="396.22,-284 396.22,-345 450.22,-345 450.22,-284 396.22,-284" style=""/>
<text text-anchor="middle" x="423.22" y="-292.2" font-family="Times,serif" font-size="14.00" style="">5</text>
</g>
<g id="clust6" class="cluster" data-name="cluster_r0_0t0_1a0_3">

<polygon fill="none" stroke="black" stroke-width="0" points="487.22,-353 487.22,-414 541.22,-414 541.22,-353 487.22,-353" style=""/>
<text text-anchor="middle" x="514.22" y="-361.2" font-family="Times,serif" font-size="14.00" style="">3</text>
</g>
<g id="clust7" class="cluster" data-name="cluster_r0_0t0_1a0_3r">

<polygon fill="none" stroke="black" stroke-width="0" points="586.56,-353 586.56,-414 640.56,-414 640.56,-353 586.56,-353" style=""/>
<text text-anchor="middle" x="613.56" y="-361.2" font-family="Times,serif" font-size="14.00" style="">3</text>
</g>
<g id="clust8" class="cluster" data-name="cluster_r0_0t0_1a1_2">

<polygon fill="none" stroke="black" stroke-width="0" points="487.22,-284 487.22,-345 541.22,-345 541.22,-284 487.22,-284" style=""/>
<text text-anchor="middle" x="514.22" y="-292.2" font-family="Times,serif" font-size="14.00" style="">2</text>
</g>
<g id="clust9" class="cluster" data-name="cluster_r0_0t0_1a1_2i">

<polygon fill="none" stroke="black" stroke-width="0" points="586.56,-284 586.56,-345 640.56,-345 640.56,-284 586.56,-284" style=""/>
<text text-anchor="middle" x="613.56" y="-292.2" font-family="Times,serif" font-size="14.00" style="">2</text>
</g>
<g id="clust17" class="cluster" data-name="cluster_r0_0t0_1e1_3">

<polygon fill="none" stroke="black" stroke-width="0" points="487.22,-146 487.22,-207 541.22,-207 541.22,-146 487.22,-146" style=""/>
<text text-anchor="middle" x="514.22" y="-154.2" font-family="Times,serif" font-size="14.00" style="">1</text>
</g>
<g id="clust10" class="cluster" data-name="cluster_r0_0t0_1a1_2i0_3">

<polygon fill="none" stroke="black" stroke-width="0" points="677.56,-284 677.56,-345 731.56,-345 731.56,-284 677.56,-284" style=""/>
<text text-anchor="middle" x="704.56" y="-292.2" font-family="Times,serif" font-size="14.00" style="">1</text>
</g>
<g id="clust11" class="cluster" data-name="cluster_r0_0t0_1a1_2i0_3r">

<polygon fill="none" stroke="black" stroke-width="0" points="776.9,-284 776.9,-345 830.9,-345 830.9,-284 776.9,-284" style=""/>
<text text-anchor="middle" x="803.9" y="-292.2" font-family="Times,serif" font-size="14.00" style="">1</text>
</g>
<g id="clust12" class="cluster" data-name="cluster_r0_0t0_1e">

<polygon fill="none" stroke="black" stroke-width="0" points="396.22,-185 396.22,-246 450.22,-246 450.22,-185 396.22,-185" style=""/>
<text text-anchor="middle" x="423.22" y="-193.2" font-family="Times,serif" font-size="14.00" style="">5</text>
</g>
<g id="clust13" class="cluster" data-name="cluster_r0_0t0_1e0_2">

<polygon fill="none" stroke="black" stroke-width="0" points="487.22,-215 487.22,-276 541.22,-276 541.22,-215 487.22,-215" style=""/>
<text text-anchor="middle" x="514.22" y="-223.2" font-family="Times,serif" font-size="14.00" style="">4</text>
</g>
<g id="clust14" class="cluster" data-name="cluster_r0_0t0_1e0_2i">

<polygon fill="none" stroke="black" stroke-width="0" points="586.56,-215 586.56,-276 640.56,-276 640.56,-215 586.56,-215" style=""/>
<text text-anchor="middle" x="613.56" y="-223.2" font-family="Times,serif" font-size="14.00" style="">4</text>
</g>
<g id="clust15" class="cluster" data-name="cluster_r0_0t0_1e0_2i0_3">

<polygon fill="none" stroke="black" stroke-width="0" points="677.56,-215 677.56,-276 731.56,-276 731.56,-215 677.56,-215" style=""/>
<text text-anchor="middle" x="704.56" y="-223.2" font-family="Times,serif" font-size="14.00" style="">3</text>
</g>
<g id="clust16" class="cluster" data-name="cluster_r0_0t0_1e0_2i0_3r">

<polygon fill="none" stroke="black" stroke-width="0" points="776.9,-215 776.9,-276 830.9,-276 830.9,-215 776.9,-215" style=""/>
<text text-anchor="middle" x="803.9" y="-223.2" font-family="Times,serif" font-size="14.00" style="">3</text>
</g>

<g id="clust3" class="cluster" data-name="cluster_r0_0t">

<polygon fill="none" stroke="black" stroke-width="0" points="205.11,-170 205.11,-231 259.11,-231 259.11,-170 205.11,-170" style=""/>
<text text-anchor="middle" x="232.11" y="-178.2" font-family="Times,serif" font-size="14.00" style="">5</text>
</g>
<g id="clust28" class="cluster" data-name="cluster_r1_1e0_2i0_3">

<polygon fill="none" stroke="black" stroke-width="0" points="487.22,-8 487.22,-69 541.22,-69 541.22,-8 487.22,-8" style=""/>
<text text-anchor="middle" x="514.22" y="-16.2" font-family="Times,serif" font-size="14.00" style="">2</text>
</g>
<g id="clust29" class="cluster" data-name="cluster_r1_1e0_2i0_3r">

<polygon fill="none" stroke="black" stroke-width="0" points="586.56,-8 586.56,-69 640.56,-69 640.56,-8 586.56,-8" style=""/>
<text text-anchor="middle" x="613.56" y="-16.2" font-family="Times,serif" font-size="14.00" style="">2</text>
</g>








<g id="clust19" class="cluster" data-name="cluster_r1_1">

<polygon fill="none" stroke="black" stroke-width="0" points="105,-77 105,-138 159,-138 159,-77 105,-77"/>
<text text-anchor="middle" x="132" y="-85.2" font-family="Times,serif" font-size="14.00">2</text>
</g>


<g id="node3" class="node" pointer-events="visible" data-name="r0_0t">

<polygon fill="none" stroke="black" points="259.11,-231 205.11,-231 205.11,-195 259.11,-195 259.11,-231" style=""/>
<text text-anchor="middle" x="232.11" y="-208.8" font-family="Comic Sans MS" font-size="14.00" style="">+</text>
</g>

<g id="edge16" class="edge" data-name="r0_0--r0_0t">

<path fill="none" stroke="black" d="M158.78,-210.05C172.97,-210.63 190.55,-211.35 204.82,-211.93"/>
<text text-anchor="middle" x="182.06" y="-215.2" font-family="Comic Sans MS" font-size="14.00" style="">T</text>
</g>

<g id="node4" class="node" pointer-events="visible" data-name="r0_0t0_1">

<path fill="lightgrey" stroke="black" stroke-width="0" d="M338.11,-246C338.11,-246 308.11,-246 308.11,-246 302.11,-246 296.11,-240 296.11,-234 296.11,-234 296.11,-222 296.11,-222 296.11,-216 302.11,-210 308.11,-210 308.11,-210 338.11,-210 338.11,-210 344.11,-210 350.11,-216 350.11,-222 350.11,-222 350.11,-234 350.11,-234 350.11,-240 344.11,-246 338.11,-246" style=""/>
<text text-anchor="middle" x="323.11" y="-223.8" font-family="Comic Sans MS" font-size="14.00" style="">1</text>
</g>

<g id="edge15" class="edge" data-name="r0_0t--r0_0t0_1">

<path fill="none" stroke="black" d="M259.33,-217.42C271.02,-219.39 284.75,-221.7 296.38,-223.66" style=""/>
</g>
<g id="node2" class="node" pointer-events="visible" data-name="r0_0">

<path fill="lightgrey" stroke="black" stroke-width="0" d="M147,-227C147,-227 117,-227 117,-227 111,-227 105,-221 105,-215 105,-215 105,-203 105,-203 105,-197 111,-191 117,-191 117,-191 147,-191 147,-191 153,-191 159,-197 159,-203 159,-203 159,-215 159,-215 159,-221 153,-227 147,-227"/>
<text text-anchor="middle" x="132" y="-204.8" font-family="Comic Sans MS" font-size="14.00">cell=0</text>
</g>
<g id="node5" class="node" pointer-events="visible" data-name="r0_0t0_1a">

<polygon fill="none" stroke="black" points="450.22,-345 396.22,-345 396.22,-309 450.22,-309 450.22,-345" style=""/>
<text text-anchor="middle" x="423.22" y="-322.8" font-family="Comic Sans MS" font-size="14.00" style="">+</text>
</g>
<g id="edge17" class="edge" data-name="r--r0_0">

<path fill="none" stroke="black" d="M62.46,-183.75C75.75,-188.64 91.79,-194.55 105.01,-199.42"/>
</g>
<g id="edge7" class="edge" data-name="r0_0t0_1--r0_0t0_1a">

<path fill="none" stroke="black" d="M341.65,-245.7C359.29,-263.5 386.35,-290.81 404.17,-308.78" style=""/>
<text text-anchor="middle" x="373.17" y="-284.2" font-family="Comic Sans MS" font-size="14.00" style="">A</text>
</g>
<g id="node19" class="node" pointer-events="visible" data-name="r1_1">

<path fill="lightgrey" stroke="black" stroke-width="0" d="M147,-138C147,-138 117,-138 117,-138 111,-138 105,-132 105,-126 105,-126 105,-114 105,-114 105,-108 111,-102 117,-102 117,-102 147,-102 147,-102 153,-102 159,-108 159,-114 159,-114 159,-126 159,-126 159,-132 153,-138 147,-138"/>
<text text-anchor="middle" x="132" y="-115.8" font-family="Comic Sans MS" font-size="14.00">cell=1</text>
</g>
<!-- r --><g id="node12" class="node" pointer-events="visible" data-name="r0_0t0_1e" data-comment="r">

<polygon fill="none" stroke="black" points="450.22,-246 396.22,-246 396.22,-210 450.22,-210 450.22,-246" style=""/>
<text text-anchor="middle" x="423.22" y="-223.8" font-family="Comic Sans MS" font-size="14.00" style="">+</text>
</g>
<g id="node1" class="node" pointer-events="visible" data-name="r">

<polygon fill="none" stroke="black" points="62,-192 8,-192 8,-156 62,-156 62,-192"/>
<text text-anchor="middle" x="35" y="-169.8" font-family="Comic Sans MS" font-size="14.00">+</text>
</g><g id="edge28" class="edge" data-name="r--r1_1" data-comment="r">

<path fill="none" stroke="black" d="M62.46,-158.96C75.75,-151.41 91.79,-142.29 105.01,-134.77"/>
</g>
<!-- r0_2 --><g id="edge14" class="edge" data-name="r0_0t0_1--r0_0t0_1e" data-comment="r0_2">

<path fill="none" stroke="black" d="M349.89,-228C364.08,-228 381.66,-228 395.93,-228" style=""/>
<text text-anchor="middle" x="373.17" y="-232.2" font-family="Comic Sans MS" font-size="14.00" style="">E</text>
</g>

<!-- r&#45;&#45;r0_2 --><g id="node6" class="node" pointer-events="visible" data-name="r0_0t0_1a0_3" data-comment="r--r0_2">

<path fill="lightgrey" stroke="black" stroke-width="0" d="M529.22,-414C529.22,-414 499.22,-414 499.22,-414 493.22,-414 487.22,-408 487.22,-402 487.22,-402 487.22,-390 487.22,-390 487.22,-384 493.22,-378 499.22,-378 499.22,-378 529.22,-378 529.22,-378 535.22,-378 541.22,-384 541.22,-390 541.22,-390 541.22,-402 541.22,-402 541.22,-408 535.22,-414 529.22,-414" style=""/>
<text text-anchor="middle" x="514.22" y="-391.8" font-family="Comic Sans MS" font-size="14.00" style="">3</text>
</g>

<!-- r1_3 --><g id="edge2" class="edge" data-name="r0_0t0_1a--r0_0t0_1a0_3" data-comment="r1_3">

<path fill="none" stroke="black" d="M448.07,-345.49C461.15,-355.63 477.29,-368.14 490.23,-378.17" style=""/>
</g>

<!-- r&#45;&#45;r1_3 --><g id="node8" class="node" pointer-events="visible" data-name="r0_0t0_1a1_2" data-comment="r--r1_3">

<path fill="lightgrey" stroke="black" stroke-width="0" d="M529.22,-345C529.22,-345 499.22,-345 499.22,-345 493.22,-345 487.22,-339 487.22,-333 487.22,-333 487.22,-321 487.22,-321 487.22,-315 493.22,-309 499.22,-309 499.22,-309 529.22,-309 529.22,-309 535.22,-309 541.22,-315 541.22,-321 541.22,-321 541.22,-333 541.22,-333 541.22,-339 535.22,-345 529.22,-345" style=""/>
<text text-anchor="middle" x="514.22" y="-322.8" font-family="Comic Sans MS" font-size="14.00" style="">2</text>
</g>

<!-- r0_2e --><g id="edge6" class="edge" data-name="r0_0t0_1a--r0_0t0_1a1_2" data-comment="r0_2e">

<path fill="none" stroke="black" d="M450.44,-327C462.13,-327 475.86,-327 487.49,-327" style=""/>
</g>

<!-- r0_2&#45;&#45;r0_2e --><g id="node7" class="node" pointer-events="visible" data-name="r0_0t0_1a0_3r" data-comment="r0_2--r0_2e">

<polygon fill="none" stroke="black" points="640.56,-414 586.56,-414 586.56,-378 640.56,-378 640.56,-414" style=""/>
<text text-anchor="middle" x="613.56" y="-391.8" font-family="Comic Sans MS" font-size="14.00" style="">+3</text>
</g>

<!-- r0_2f --><g id="edge1" class="edge" data-name="r0_0t0_1a0_3--r0_0t0_1a0_3r" data-comment="r0_2f">

<path fill="none" stroke="black" d="M541.05,-396C555.02,-396 572.23,-396 586.27,-396" style=""/>
<text text-anchor="middle" x="563.89" y="-400.2" font-family="Comic Sans MS" font-size="14.00" style="">R</text>
</g>

<!-- r0_2&#45;&#45;r0_2f --><g id="node9" class="node" pointer-events="visible" data-name="r0_0t0_1a1_2i" data-comment="r0_2--r0_2f">

<polygon fill="none" stroke="black" points="640.56,-345 586.56,-345 586.56,-309 640.56,-309 640.56,-345" style=""/>
<text text-anchor="middle" x="613.56" y="-322.8" font-family="Comic Sans MS" font-size="14.00" style="">+1</text>
</g>

<!-- r0_2e0_1 --><g id="edge5" class="edge" data-name="r0_0t0_1a1_2--r0_0t0_1a1_2i" data-comment="r0_2e0_1">

<path fill="none" stroke="black" d="M541.05,-327C555.02,-327 572.23,-327 586.27,-327" style=""/>
<text text-anchor="middle" x="563.89" y="-331.2" font-family="Comic Sans MS" font-size="14.00" style="">I</text>
</g>

<!-- r0_2e&#45;&#45;r0_2e0_1 --><g id="node10" class="node" pointer-events="visible" data-name="r0_0t0_1a1_2i0_3" data-comment="r0_2e--r0_2e0_1">

<path fill="lightgrey" stroke="black" stroke-width="0" d="M719.56,-345C719.56,-345 689.56,-345 689.56,-345 683.56,-345 677.56,-339 677.56,-333 677.56,-333 677.56,-321 677.56,-321 677.56,-315 683.56,-309 689.56,-309 689.56,-309 719.56,-309 719.56,-309 725.56,-309 731.56,-315 731.56,-321 731.56,-321 731.56,-333 731.56,-333 731.56,-339 725.56,-345 719.56,-345" style=""/>
<text text-anchor="middle" x="704.56" y="-322.8" font-family="Comic Sans MS" font-size="14.00" style="">3</text>
</g>

<!-- r0_2e0_1c --><g id="edge4" class="edge" data-name="r0_0t0_1a1_2i--r0_0t0_1a1_2i0_3" data-comment="r0_2e0_1c">

<path fill="none" stroke="black" d="M640.78,-327C652.47,-327 666.2,-327 677.83,-327" style=""/>
</g>

<!-- r0_2e0_1&#45;&#45;r0_2e0_1c --><g id="node11" class="node" pointer-events="visible" data-name="r0_0t0_1a1_2i0_3r" data-comment="r0_2e0_1--r0_2e0_1c">

<polygon fill="none" stroke="black" points="830.9,-345 776.9,-345 776.9,-309 830.9,-309 830.9,-345" style=""/>
<text text-anchor="middle" x="803.9" y="-322.8" font-family="Comic Sans MS" font-size="14.00" style="">+1</text>
</g>

<!-- r0_2e0_1d --><g id="edge3" class="edge" data-name="r0_0t0_1a1_2i0_3--r0_0t0_1a1_2i0_3r" data-comment="r0_2e0_1d">

<path fill="none" stroke="black" d="M731.39,-327C745.36,-327 762.57,-327 776.61,-327" style=""/>
<text text-anchor="middle" x="754.23" y="-331.2" font-family="Comic Sans MS" font-size="14.00" style="">R</text>
</g>

<!-- r0_2e0_1&#45;&#45;r0_2e0_1d --><g id="node13" class="node" pointer-events="visible" data-name="r0_0t0_1e0_2" data-comment="r0_2e0_1--r0_2e0_1d">

<path fill="lightgrey" stroke="black" stroke-width="0" d="M529.22,-276C529.22,-276 499.22,-276 499.22,-276 493.22,-276 487.22,-270 487.22,-264 487.22,-264 487.22,-252 487.22,-252 487.22,-246 493.22,-240 499.22,-240 499.22,-240 529.22,-240 529.22,-240 535.22,-240 541.22,-246 541.22,-252 541.22,-252 541.22,-264 541.22,-264 541.22,-270 535.22,-276 529.22,-276" style=""/>
<text text-anchor="middle" x="514.22" y="-253.8" font-family="Comic Sans MS" font-size="14.00" style="">2</text>
</g>

<!-- r0_2e0_1c0_0 --><g id="edge11" class="edge" data-name="r0_0t0_1e--r0_0t0_1e0_2" data-comment="r0_2e0_1c0_0">

<path fill="none" stroke="black" d="M450.44,-236.84C462.13,-240.78 475.86,-245.41 487.49,-249.33" style=""/>
</g>

<!-- r0_2e0_1c&#45;&#45;r0_2e0_1c0_0 --><g id="node17" class="node" pointer-events="visible" data-name="r0_0t0_1e1_3" data-comment="r0_2e0_1c--r0_2e0_1c0_0">

<path fill="lightgrey" stroke="black" stroke-width="0" d="M529.22,-207C529.22,-207 499.22,-207 499.22,-207 493.22,-207 487.22,-201 487.22,-195 487.22,-195 487.22,-183 487.22,-183 487.22,-177 493.22,-171 499.22,-171 499.22,-171 529.22,-171 529.22,-171 535.22,-171 541.22,-177 541.22,-183 541.22,-183 541.22,-195 541.22,-195 541.22,-201 535.22,-207 529.22,-207" style=""/>
<text text-anchor="middle" x="514.22" y="-184.8" font-family="Comic Sans MS" font-size="14.00" style="">3</text>
</g>

<!-- r0_2e0_1c0_0a --><g id="edge13" class="edge" data-name="r0_0t0_1e--r0_0t0_1e1_3" data-comment="r0_2e0_1c0_0a">

<path fill="none" stroke="black" d="M450.44,-216.51C462.13,-211.39 475.86,-205.37 487.49,-200.27" style=""/>
</g>

<!-- r0_2e0_1c0_0&#45;&#45;r0_2e0_1c0_0a --><g id="node14" class="node" pointer-events="visible" data-name="r0_0t0_1e0_2i" data-comment="r0_2e0_1c0_0--r0_2e0_1c0_0a">

<polygon fill="none" stroke="black" points="640.56,-276 586.56,-276 586.56,-240 640.56,-240 640.56,-276" style=""/>
<text text-anchor="middle" x="613.56" y="-253.8" font-family="Comic Sans MS" font-size="14.00" style="">+1</text>
</g>

<!-- r0_2e0_1d0_0 --><g id="edge10" class="edge" data-name="r0_0t0_1e0_2--r0_0t0_1e0_2i" data-comment="r0_2e0_1d0_0">

<path fill="none" stroke="black" d="M541.05,-258C555.02,-258 572.23,-258 586.27,-258" style=""/>
<text text-anchor="middle" x="563.89" y="-262.2" font-family="Comic Sans MS" font-size="14.00" style="">I</text>
</g>

<!-- r0_2e0_1d&#45;&#45;r0_2e0_1d0_0 --><g id="node15" class="node" pointer-events="visible" data-name="r0_0t0_1e0_2i0_3" data-comment="r0_2e0_1d--r0_2e0_1d0_0">

<path fill="lightgrey" stroke="black" stroke-width="0" d="M719.56,-276C719.56,-276 689.56,-276 689.56,-276 683.56,-276 677.56,-270 677.56,-264 677.56,-264 677.56,-252 677.56,-252 677.56,-246 683.56,-240 689.56,-240 689.56,-240 719.56,-240 719.56,-240 725.56,-240 731.56,-246 731.56,-252 731.56,-252 731.56,-264 731.56,-264 731.56,-270 725.56,-276 719.56,-276" style=""/>
<text text-anchor="middle" x="704.56" y="-253.8" font-family="Comic Sans MS" font-size="14.00" style="">3</text>
</g>

<!-- r0_2e0_1d0_0b --><g id="edge9" class="edge" data-name="r0_0t0_1e0_2i--r0_0t0_1e0_2i0_3" data-comment="r0_2e0_1d0_0b">

<path fill="none" stroke="black" d="M640.78,-258C652.47,-258 666.2,-258 677.83,-258" style=""/>
</g>

<!-- r0_2e0_1d0_0&#45;&#45;r0_2e0_1d0_0b --><g id="node16" class="node" pointer-events="visible" data-name="r0_0t0_1e0_2i0_3r" data-comment="r0_2e0_1d0_0--r0_2e0_1d0_0b">

<polygon fill="none" stroke="black" points="830.9,-276 776.9,-276 776.9,-240 830.9,-240 830.9,-276" style=""/>
<text text-anchor="middle" x="803.9" y="-253.8" font-family="Comic Sans MS" font-size="14.00" style="">+3</text>
</g>

<!-- r0_2f0_1 --><g id="edge8" class="edge" data-name="r0_0t0_1e0_2i0_3--r0_0t0_1e0_2i0_3r" data-comment="r0_2f0_1">

<path fill="none" stroke="black" d="M731.39,-258C745.36,-258 762.57,-258 776.61,-258" style=""/>
<text text-anchor="middle" x="754.23" y="-262.2" font-family="Comic Sans MS" font-size="14.00" style="">R</text>
</g>

<!-- r0_2f&#45;&#45;r0_2f0_1 --><g id="node18" class="node" pointer-events="visible" data-name="r0_0t0_1e1_3r" data-comment="r0_2f--r0_2f0_1">

<polygon fill="none" stroke="black" points="640.56,-207 586.56,-207 586.56,-171 640.56,-171 640.56,-207" style=""/>
<text text-anchor="middle" x="613.56" y="-184.8" font-family="Comic Sans MS" font-size="14.00" style="">+1</text>
</g>

<!-- r0_2f0_1d --><g id="edge12" class="edge" data-name="r0_0t0_1e1_3--r0_0t0_1e1_3r" data-comment="r0_2f0_1d">

<path fill="none" stroke="black" d="M541.05,-189C555.02,-189 572.23,-189 586.27,-189" style=""/>
<text text-anchor="middle" x="563.89" y="-193.2" font-family="Comic Sans MS" font-size="14.00" style="">R</text>
</g>

<!-- r0_2f0_1&#45;&#45;r0_2f0_1d --><g id="node20" class="node" pointer-events="visible" data-name="r1_1a" data-comment="r0_2f0_1--r0_2f0_1d">

<polygon fill="none" stroke="black" points="259.11,-138 205.11,-138 205.11,-102 259.11,-102 259.11,-138" style=""/>
<text text-anchor="middle" x="232.11" y="-115.8" font-family="Comic Sans MS" font-size="14.00" style="">+</text>
</g>

<!-- r0_2f0_1d0_0 --><g id="edge22" class="edge" data-name="r1_1--r1_1a" data-comment="r0_2f0_1d0_0">

<path fill="none" stroke="black" d="M158.78,-120C172.97,-120 190.55,-120 204.82,-120"/>
<text text-anchor="middle" x="182.06" y="-124.2" font-family="Comic Sans MS" font-size="14.00" style="">A</text>
</g>

<!-- r0_2f0_1d&#45;&#45;r0_2f0_1d0_0 --><g id="node25" class="node" pointer-events="visible" data-name="r1_1e" data-comment="r0_2f0_1d--r0_2f0_1d0_0">

<polygon fill="none" stroke="black" points="259.11,-69 205.11,-69 205.11,-33 259.11,-33 259.11,-69" style=""/>
<text text-anchor="middle" x="232.11" y="-46.8" font-family="Comic Sans MS" font-size="14.00" style="">+</text>
</g>

<!-- r0_2f0_1d0_0a --><g id="edge27" class="edge" data-name="r1_1--r1_1e" data-comment="r0_2f0_1d0_0a">

<path fill="none" stroke="black" d="M158.52,-102.05C172.83,-91.99 190.64,-79.46 205.03,-69.34"/>
<text text-anchor="middle" x="182.06" y="-91.2" font-family="Comic Sans MS" font-size="14.00" style="">E</text>
</g>

<!-- r0_2f0_1d0_0&#45;&#45;r0_2f0_1d0_0a --><g id="node21" class="node" pointer-events="visible" data-name="r1_1a0_2" data-comment="r0_2f0_1d0_0--r0_2f0_1d0_0a">

<path fill="lightgrey" stroke="black" stroke-width="0" d="M338.11,-138C338.11,-138 308.11,-138 308.11,-138 302.11,-138 296.11,-132 296.11,-126 296.11,-126 296.11,-114 296.11,-114 296.11,-108 302.11,-102 308.11,-102 308.11,-102 338.11,-102 338.11,-102 344.11,-102 350.11,-108 350.11,-114 350.11,-114 350.11,-126 350.11,-126 350.11,-132 344.11,-138 338.11,-138" style=""/>
<text text-anchor="middle" x="323.11" y="-115.8" font-family="Comic Sans MS" font-size="14.00" style="">2</text>
</g>

<!-- r1_3g --><g id="edge21" class="edge" data-name="r1_1a--r1_1a0_2" data-comment="r1_3g">

<path fill="none" stroke="black" d="M259.33,-120C271.02,-120 284.75,-120 296.38,-120" style=""/>
</g>

<!-- r1_3&#45;&#45;r1_3g --><g id="node22" class="node" pointer-events="visible" data-name="r1_1a0_2i" data-comment="r1_3--r1_3g">

<polygon fill="none" stroke="black" points="450.22,-138 396.22,-138 396.22,-102 450.22,-102 450.22,-138" style=""/>
<text text-anchor="middle" x="423.22" y="-115.8" font-family="Comic Sans MS" font-size="14.00" style="">+</text>
</g>

<!-- r1_3h --><g id="edge20" class="edge" data-name="r1_1a0_2--r1_1a0_2i" data-comment="r1_3h">

<path fill="none" stroke="black" d="M349.89,-120C364.08,-120 381.66,-120 395.93,-120" style=""/>
<text text-anchor="middle" x="373.17" y="-124.2" font-family="Comic Sans MS" font-size="14.00" style="">I</text>
</g>

<!-- r1_3&#45;&#45;r1_3h --><g id="node23" class="node" pointer-events="visible" data-name="r1_1a0_2i0_3" data-comment="r1_3--r1_3h">

<path fill="lightgrey" stroke="black" stroke-width="0" d="M529.22,-138C529.22,-138 499.22,-138 499.22,-138 493.22,-138 487.22,-132 487.22,-126 487.22,-126 487.22,-114 487.22,-114 487.22,-108 493.22,-102 499.22,-102 499.22,-102 529.22,-102 529.22,-102 535.22,-102 541.22,-108 541.22,-114 541.22,-114 541.22,-126 541.22,-126 541.22,-132 535.22,-138 529.22,-138" style=""/>
<text text-anchor="middle" x="514.22" y="-115.8" font-family="Comic Sans MS" font-size="14.00" style="">3</text>
</g>

<!-- r1_3g0_2 --><g id="edge19" class="edge" data-name="r1_1a0_2i--r1_1a0_2i0_3" data-comment="r1_3g0_2">

<path fill="none" stroke="black" d="M450.44,-120C462.13,-120 475.86,-120 487.49,-120" style=""/>
</g>

<!-- r1_3g&#45;&#45;r1_3g0_2 --><g id="node24" class="node" pointer-events="visible" data-name="r1_1a0_2i0_3r" data-comment="r1_3g--r1_3g0_2">

<polygon fill="none" stroke="black" points="640.56,-138 586.56,-138 586.56,-102 640.56,-102 640.56,-138" style=""/>
<text text-anchor="middle" x="613.56" y="-115.8" font-family="Comic Sans MS" font-size="14.00" style="">+2</text>
</g>

<!-- r1_3g1_1 --><g id="edge18" class="edge" data-name="r1_1a0_2i0_3--r1_1a0_2i0_3r" data-comment="r1_3g1_1">

<path fill="none" stroke="black" d="M541.05,-120C555.02,-120 572.23,-120 586.27,-120" style=""/>
<text text-anchor="middle" x="563.89" y="-124.2" font-family="Comic Sans MS" font-size="14.00" style="">R</text>
</g>

<!-- r1_3g&#45;&#45;r1_3g1_1 --><g id="node26" class="node" pointer-events="visible" data-name="r1_1e0_2" data-comment="r1_3g--r1_3g1_1">

<path fill="lightgrey" stroke="black" stroke-width="0" d="M338.11,-69C338.11,-69 308.11,-69 308.11,-69 302.11,-69 296.11,-63 296.11,-57 296.11,-57 296.11,-45 296.11,-45 296.11,-39 302.11,-33 308.11,-33 308.11,-33 338.11,-33 338.11,-33 344.11,-33 350.11,-39 350.11,-45 350.11,-45 350.11,-57 350.11,-57 350.11,-63 344.11,-69 338.11,-69" style=""/>
<text text-anchor="middle" x="323.11" y="-46.8" font-family="Comic Sans MS" font-size="14.00" style="">2</text>
</g>

<!-- r1_3g0_2e --><g id="edge26" class="edge" data-name="r1_1e--r1_1e0_2" data-comment="r1_3g0_2e">

<path fill="none" stroke="black" d="M259.33,-51C271.02,-51 284.75,-51 296.38,-51" style=""/>
</g>

<!-- r1_3g0_2&#45;&#45;r1_3g0_2e --><g id="node27" class="node" pointer-events="visible" data-name="r1_1e0_2i" data-comment="r1_3g0_2--r1_3g0_2e">

<polygon fill="none" stroke="black" points="450.22,-69 396.22,-69 396.22,-33 450.22,-33 450.22,-69" style=""/>
<text text-anchor="middle" x="423.22" y="-46.8" font-family="Comic Sans MS" font-size="14.00" style="">+</text>
</g>

<!-- r1_3g0_2f --><g id="edge25" class="edge" data-name="r1_1e0_2--r1_1e0_2i" data-comment="r1_3g0_2f">

<path fill="none" stroke="black" d="M349.89,-51C364.08,-51 381.66,-51 395.93,-51" style=""/>
<text text-anchor="middle" x="373.17" y="-55.2" font-family="Comic Sans MS" font-size="14.00" style="">I</text>
</g>

<!-- r1_3g0_2&#45;&#45;r1_3g0_2f --><g id="node28" class="node" pointer-events="visible" data-name="r1_1e0_2i0_3" data-comment="r1_3g0_2--r1_3g0_2f">

<path fill="lightgrey" stroke="black" stroke-width="0" d="M529.22,-69C529.22,-69 499.22,-69 499.22,-69 493.22,-69 487.22,-63 487.22,-57 487.22,-57 487.22,-45 487.22,-45 487.22,-39 493.22,-33 499.22,-33 499.22,-33 529.22,-33 529.22,-33 535.22,-33 541.22,-39 541.22,-45 541.22,-45 541.22,-57 541.22,-57 541.22,-63 535.22,-69 529.22,-69" style=""/>
<text text-anchor="middle" x="514.22" y="-46.8" font-family="Comic Sans MS" font-size="14.00" style="">3</text>
</g>

<!-- r1_3g0_2e0_0 --><g id="edge24" class="edge" data-name="r1_1e0_2i--r1_1e0_2i0_3" data-comment="r1_3g0_2e0_0">

<path fill="none" stroke="black" d="M450.44,-51C462.13,-51 475.86,-51 487.49,-51" style=""/>
</g>

<!-- r1_3g0_2e&#45;&#45;r1_3g0_2e0_0 --><g id="node29" class="node" pointer-events="visible" data-name="r1_1e0_2i0_3r" data-comment="r1_3g0_2e--r1_3g0_2e0_0">

<polygon fill="none" stroke="black" points="640.56,-69 586.56,-69 586.56,-33 640.56,-33 640.56,-69" style=""/>
<text text-anchor="middle" x="613.56" y="-46.8" font-family="Comic Sans MS" font-size="14.00" style="">+2</text>
</g>

<!-- r1_3g0_2e1_1 --><g id="edge23" class="edge" data-name="r1_1e0_2i0_3--r1_1e0_2i0_3r" data-comment="r1_3g0_2e1_1">

<path fill="none" stroke="black" d="M541.05,-51C555.02,-51 572.23,-51 586.27,-51" style=""/>
<text text-anchor="middle" x="563.89" y="-55.2" font-family="Comic Sans MS" font-size="14.00" style="">R</text>
</g>
<!-- r1_3g0_2e&#45;&#45;r1_3g0_2e1_1 --><!-- r1_3g0_2e0_0a --><!-- r1_3g0_2e0_0&#45;&#45;r1_3g0_2e0_0a --><!-- r1_3g0_2e0_0b --><!-- r1_3g0_2e0_0&#45;&#45;r1_3g0_2e0_0b --><!-- r1_3g0_2e1_1c --><!-- r1_3g0_2e1_1&#45;&#45;r1_3g0_2e1_1c --><!-- r1_3g0_2e1_1d --><!-- r1_3g0_2e1_1&#45;&#45;r1_3g0_2e1_1d --><!-- r1_3g0_2e1_1c0_0 --><!-- r1_3g0_2e1_1c&#45;&#45;r1_3g0_2e1_1c0_0 --></g>
</svg>