<?xml version="1.0" standalone="no"?>
<svg xmlns="http://www.w3.org/2000/svg" xmlns:xlink="http://www.w3.org/1999/xlink" width="826pt" height="577pt" viewBox="0.00 0.00 825.67 576.6">
<g id="graph0" class="graph" transform="translate(4,572.5999755859375) scale(1)" data-name="">
<polygon fill="white" stroke="none" points="-4,4 -4,-572.6 821.67,-572.6 821.67,4 -4,4"/>
























































<!-- r -->
<g id="node1" class="node" pointer-events="visible" data-name="r">

<polygon fill="none" stroke="black" points="54,-292.8 0,-292.8 0,-256.8 54,-256.8 54,-292.8"/>
<text text-anchor="middle" x="27" y="-270.6" font-family="Comic Sans MS" font-size="14.00">+</text>
</g>
<!-- r0_0 -->
<g id="node2" class="node" pointer-events="visible" data-name="r0_0">

<path fill="lightgrey" stroke="black" stroke-width="0" d="M133,-418.8C133,-418.8 103,-418.8 103,-418.8 97,-418.8 91,-412.8 91,-406.8 91,-406.8 91,-394.8 91,-394.8 91,-388.8 97,-382.8 103,-382.8 103,-382.8 133,-382.8 133,-382.8 139,-382.8 145,-388.8 145,-394.8 145,-394.8 145,-406.8 145,-406.8 145,-412.8 139,-418.8 133,-418.8"/>
<text text-anchor="middle" x="118" y="-396.6" font-family="Comic Sans MS" font-size="14.00">cell=0</text>
</g>
<!-- r&#45;&#45;r0_0 -->
<g id="edge16" class="edge" data-name="r--r0_0">

<path fill="none" stroke="black" d="M40.94,-293.12C57.91,-317.15 87.5,-359.03 104.33,-382.86"/>
</g>
<!-- r1_1 -->
<g id="node18" class="node" pointer-events="visible" data-name="r1_1">

<path fill="lightgrey" stroke="black" stroke-width="0" d="M133,-322.8C133,-322.8 103,-322.8 103,-322.8 97,-322.8 91,-316.8 91,-310.8 91,-310.8 91,-298.8 91,-298.8 91,-292.8 97,-286.8 103,-286.8 103,-286.8 133,-286.8 133,-286.8 139,-286.8 145,-292.8 145,-298.8 145,-298.8 145,-310.8 145,-310.8 145,-316.8 139,-322.8 133,-322.8"/>
<text text-anchor="middle" x="118" y="-300.6" font-family="Comic Sans MS" font-size="14.00">cell=1</text>
</g>
<!-- r&#45;&#45;r1_1 -->
<g id="edge30" class="edge" data-name="r--r1_1">

<path fill="none" stroke="black" d="M54.22,-283.64C65.91,-287.58 79.64,-292.21 91.27,-296.13"/>
</g>
<!-- r2_2 -->
<g id="node32" class="node" pointer-events="visible" data-name="r2_2">

<path fill="lightgrey" stroke="black" stroke-width="0" d="M133,-278.8C133,-278.8 103,-278.8 103,-278.8 97,-278.8 91,-272.8 91,-266.8 91,-266.8 91,-254.8 91,-254.8 91,-248.8 97,-242.8 103,-242.8 103,-242.8 133,-242.8 133,-242.8 139,-242.8 145,-248.8 145,-254.8 145,-254.8 145,-266.8 145,-266.8 145,-272.8 139,-278.8 133,-278.8"/>
<text text-anchor="middle" x="118" y="-256.6" font-family="Comic Sans MS" font-size="14.00">cell=2</text>
</g>
<!-- r&#45;&#45;r2_2 -->
<g id="edge36" class="edge" data-name="r--r2_2">

<path fill="none" stroke="black" d="M54.22,-270.68C65.91,-268.84 79.64,-266.68 91.27,-264.85"/>
</g>
<!-- r3_3 -->
<g id="node38" class="node" pointer-events="visible" data-name="r3_3">

<path fill="lightgrey" stroke="black" stroke-width="0" d="M133,-234.8C133,-234.8 103,-234.8 103,-234.8 97,-234.8 91,-228.8 91,-222.8 91,-222.8 91,-210.8 91,-210.8 91,-204.8 97,-198.8 103,-198.8 103,-198.8 133,-198.8 133,-198.8 139,-198.8 145,-204.8 145,-210.8 145,-210.8 145,-222.8 145,-222.8 145,-228.8 139,-234.8 133,-234.8"/>
<text text-anchor="middle" x="118" y="-212.6" font-family="Comic Sans MS" font-size="14.00">cell=3</text>
</g>
<!-- r&#45;&#45;r3_3 -->
<g id="edge55" class="edge" data-name="r--r3_3">

<path fill="none" stroke="black" d="M54.22,-257.71C65.91,-250.09 79.64,-241.15 91.27,-233.57"/>
</g>
<!-- r0_0t -->
<g id="node3" class="node" pointer-events="visible" data-name="r0_0t">

<polygon fill="none" stroke="black" points="245.11,-479.8 191.11,-479.8 191.11,-443.8 245.11,-443.8 245.11,-479.8"/>
<text text-anchor="middle" x="218.11" y="-457.6" font-family="Comic Sans MS" font-size="14.00">+</text>
</g>
<!-- r0_0&#45;&#45;r0_0t -->
<g id="edge15" class="edge" data-name="r0_0--r0_0t">

<path fill="none" stroke="black" d="M144.78,-416.83C158.97,-425.65 176.55,-436.58 190.82,-445.46"/>
<text text-anchor="middle" x="168.06" y="-437" font-family="Comic Sans MS" font-size="14.00">T</text>
</g>
<!-- r0_0t0_1 -->
<g id="node4" class="node" pointer-events="visible" data-name="r0_0t0_1">

<path fill="lightgrey" stroke="black" stroke-width="0" d="M324.11,-526.8C324.11,-526.8 294.11,-526.8 294.11,-526.8 288.11,-526.8 282.11,-520.8 282.11,-514.8 282.11,-514.8 282.11,-502.8 282.11,-502.8 282.11,-496.8 288.11,-490.8 294.11,-490.8 294.11,-490.8 324.11,-490.8 324.11,-490.8 330.11,-490.8 336.11,-496.8 336.11,-502.8 336.11,-502.8 336.11,-514.8 336.11,-514.8 336.11,-520.8 330.11,-526.8 324.11,-526.8"/>
<text text-anchor="middle" x="309.11" y="-504.6" font-family="Comic Sans MS" font-size="14.00">1</text>
</g>
<!-- r0_0t&#45;&#45;r0_0t0_1 -->
<g id="edge4" class="edge" data-name="r0_0t--r0_0t0_1">

<path fill="none" stroke="black" d="M245.33,-475.65C257.02,-481.82 270.75,-489.07 282.38,-495.21"/>
</g>
<!-- r0_0t1_2 -->
<g id="node8" class="node" pointer-events="visible" data-name="r0_0t1_2">

<path fill="lightgrey" stroke="black" stroke-width="0" d="M324.11,-479.8C324.11,-479.8 294.11,-479.8 294.11,-479.8 288.11,-479.8 282.11,-473.8 282.11,-467.8 282.11,-467.8 282.11,-455.8 282.11,-455.8 282.11,-449.8 288.11,-443.8 294.11,-443.8 294.11,-443.8 324.11,-443.8 324.11,-443.8 330.11,-443.8 336.11,-449.8 336.11,-455.8 336.11,-455.8 336.11,-467.8 336.11,-467.8 336.11,-473.8 330.11,-479.8 324.11,-479.8"/>
<text text-anchor="middle" x="309.11" y="-457.6" font-family="Comic Sans MS" font-size="14.00">2</text>
</g>
<!-- r0_0t&#45;&#45;r0_0t1_2 -->
<g id="edge14" class="edge" data-name="r0_0t--r0_0t1_2">

<path fill="none" stroke="black" d="M245.33,-461.8C257.02,-461.8 270.75,-461.8 282.38,-461.8"/>
</g>
<!-- r0_0t0_1a -->
<g id="node5" class="node" pointer-events="visible" data-name="r0_0t0_1a">

<polygon fill="none" stroke="black" points="436.22,-538.8 382.22,-538.8 382.22,-502.8 436.22,-502.8 436.22,-538.8"/>
<text text-anchor="middle" x="409.22" y="-516.6" font-family="Comic Sans MS" font-size="14.00">+</text>
</g>
<!-- r0_0t0_1&#45;&#45;r0_0t0_1a -->
<g id="edge3" class="edge" data-name="r0_0t0_1--r0_0t0_1a">

<path fill="none" stroke="black" d="M335.89,-511.95C350.08,-513.69 367.66,-515.84 381.93,-517.58"/>
<text text-anchor="middle" x="359.17" y="-519" font-family="Comic Sans MS" font-size="14.00">A</text>
</g>
<!-- r0_0t0_1a0_3 -->
<g id="node6" class="node" pointer-events="visible" data-name="r0_0t0_1a0_3">

<path fill="lightgrey" stroke="black" stroke-width="0" d="M515.22,-562.8C515.22,-562.8 485.22,-562.8 485.22,-562.8 479.22,-562.8 473.22,-556.8 473.22,-550.8 473.22,-550.8 473.22,-538.8 473.22,-538.8 473.22,-532.8 479.22,-526.8 485.22,-526.8 485.22,-526.8 515.22,-526.8 515.22,-526.8 521.22,-526.8 527.22,-532.8 527.22,-538.8 527.22,-538.8 527.22,-550.8 527.22,-550.8 527.22,-556.8 521.22,-562.8 515.22,-562.8"/>
<text text-anchor="middle" x="500.22" y="-540.6" font-family="Comic Sans MS" font-size="14.00">3</text>
</g>
<!-- r0_0t0_1a&#45;&#45;r0_0t0_1a0_3 -->
<g id="edge2" class="edge" data-name="r0_0t0_1a--r0_0t0_1a0_3">

<path fill="none" stroke="black" d="M436.44,-527.87C448.13,-531.02 461.86,-534.73 473.49,-537.86"/>
</g>
<!-- r0_0t0_1a0_3r -->
<g id="node7" class="node" pointer-events="visible" data-name="r0_0t0_1a0_3r">

<polygon fill="none" stroke="black" points="627.33,-568.4 573.33,-568.4 573.33,-527.2 627.33,-527.2 627.33,-568.4"/>
<text text-anchor="middle" x="600.33" y="-552" font-family="Comic Sans MS" font-size="14.00">+1</text>
<text text-anchor="middle" x="600.33" y="-535.2" font-family="Comic Sans MS" font-size="14.00">TAR</text>
</g>
<!-- r0_0t0_1a0_3&#45;&#45;r0_0t0_1a0_3r -->
<g id="edge1" class="edge" data-name="r0_0t0_1a0_3--r0_0t0_1a0_3r">

<path fill="none" stroke="black" d="M527,-545.59C541.19,-546.02 558.77,-546.56 573.04,-547"/>
<text text-anchor="middle" x="550.28" y="-550" font-family="Comic Sans MS" font-size="14.00">R</text>
</g>
<!-- r0_0t1_2i -->
<g id="node9" class="node" pointer-events="visible" data-name="r0_0t1_2i">

<polygon fill="none" stroke="black" points="436.22,-479.8 382.22,-479.8 382.22,-443.8 436.22,-443.8 436.22,-479.8"/>
<text text-anchor="middle" x="409.22" y="-457.6" font-family="Comic Sans MS" font-size="14.00">+</text>
</g>
<!-- r0_0t1_2&#45;&#45;r0_0t1_2i -->
<g id="edge13" class="edge" data-name="r0_0t1_2--r0_0t1_2i">

<path fill="none" stroke="black" d="M335.89,-461.8C350.08,-461.8 367.66,-461.8 381.93,-461.8"/>
<text text-anchor="middle" x="359.17" y="-466" font-family="Comic Sans MS" font-size="14.00">I</text>
</g>
<!-- r0_0t1_2i0_1 -->
<g id="node10" class="node" pointer-events="visible" data-name="r0_0t1_2i0_1">

<path fill="lightgrey" stroke="black" stroke-width="0" d="M515.22,-514.8C515.22,-514.8 485.22,-514.8 485.22,-514.8 479.22,-514.8 473.22,-508.8 473.22,-502.8 473.22,-502.8 473.22,-490.8 473.22,-490.8 473.22,-484.8 479.22,-478.8 485.22,-478.8 485.22,-478.8 515.22,-478.8 515.22,-478.8 521.22,-478.8 527.22,-484.8 527.22,-490.8 527.22,-490.8 527.22,-502.8 527.22,-502.8 527.22,-508.8 521.22,-514.8 515.22,-514.8"/>
<text text-anchor="middle" x="500.22" y="-492.6" font-family="Comic Sans MS" font-size="14.00">1</text>
</g>
<!-- r0_0t1_2i&#45;&#45;r0_0t1_2i0_1 -->
<g id="edge8" class="edge" data-name="r0_0t1_2i--r0_0t1_2i0_1">

<path fill="none" stroke="black" d="M436.44,-472.11C448.13,-476.71 461.86,-482.11 473.49,-486.68"/>
</g>
<!-- r0_0t1_2i1_3 -->
<g id="node14" class="node" pointer-events="visible" data-name="r0_0t1_2i1_3">

<path fill="lightgrey" stroke="black" stroke-width="0" d="M515.22,-470.8C515.22,-470.8 485.22,-470.8 485.22,-470.8 479.22,-470.8 473.22,-464.8 473.22,-458.8 473.22,-458.8 473.22,-446.8 473.22,-446.8 473.22,-440.8 479.22,-434.8 485.22,-434.8 485.22,-434.8 515.22,-434.8 515.22,-434.8 521.22,-434.8 527.22,-440.8 527.22,-446.8 527.22,-446.8 527.22,-458.8 527.22,-458.8 527.22,-464.8 521.22,-470.8 515.22,-470.8"/>
<text text-anchor="middle" x="500.22" y="-448.6" font-family="Comic Sans MS" font-size="14.00">3</text>
</g>
<!-- r0_0t1_2i&#45;&#45;r0_0t1_2i1_3 -->
<g id="edge12" class="edge" data-name="r0_0t1_2i--r0_0t1_2i1_3">

<path fill="none" stroke="black" d="M436.44,-459.15C448.13,-457.97 461.86,-456.58 473.49,-455.4"/>
</g>
<!-- r0_0t1_2i0_1e -->
<g id="node11" class="node" pointer-events="visible" data-name="r0_0t1_2i0_1e">

<polygon fill="none" stroke="black" points="627.33,-519.4 573.33,-519.4 573.33,-478.2 627.33,-478.2 627.33,-519.4"/>
<text text-anchor="middle" x="600.33" y="-503" font-family="Comic Sans MS" font-size="14.00">+1</text>
<text text-anchor="middle" x="600.33" y="-486.2" font-family="Comic Sans MS" font-size="14.00">TIE</text>
</g>
<!-- r0_0t1_2i0_1&#45;&#45;r0_0t1_2i0_1e -->
<g id="edge7" class="edge" data-name="r0_0t1_2i0_1--r0_0t1_2i0_1e">

<path fill="none" stroke="black" d="M527,-497.33C541.19,-497.61 558.77,-497.97 573.04,-498.26"/>
<text text-anchor="middle" x="550.28" y="-502" font-family="Comic Sans MS" font-size="14.00">E</text>
</g>
<!-- r0_0t1_2i0_1e0_3 -->
<g id="node12" class="node" pointer-events="visible" data-name="r0_0t1_2i0_1e0_3">

<path fill="lightgrey" stroke="black" stroke-width="0" d="M706.33,-517.8C706.33,-517.8 676.33,-517.8 676.33,-517.8 670.33,-517.8 664.33,-511.8 664.33,-505.8 664.33,-505.8 664.33,-493.8 664.33,-493.8 664.33,-487.8 670.33,-481.8 676.33,-481.8 676.33,-481.8 706.33,-481.8 706.33,-481.8 712.33,-481.8 718.33,-487.8 718.33,-493.8 718.33,-493.8 718.33,-505.8 718.33,-505.8 718.33,-511.8 712.33,-517.8 706.33,-517.8"/>
<text text-anchor="middle" x="691.33" y="-495.6" font-family="Comic Sans MS" font-size="14.00">3</text>
</g>
<!-- r0_0t1_2i0_1e&#45;&#45;r0_0t1_2i0_1e0_3 -->
<g id="edge6" class="edge" data-name="r0_0t1_2i0_1e--r0_0t1_2i0_1e0_3">

<path fill="none" stroke="black" d="M627.55,-499.09C639.24,-499.23 652.97,-499.38 664.6,-499.51"/>
</g>
<!-- r0_0t1_2i0_1e0_3r -->
<g id="node13" class="node" pointer-events="visible" data-name="r0_0t1_2i0_1e0_3r">

<polygon fill="none" stroke="black" points="817.67,-520.4 763.67,-520.4 763.67,-479.2 817.67,-479.2 817.67,-520.4"/>
<text text-anchor="middle" x="790.67" y="-504" font-family="Comic Sans MS" font-size="14.00">+1</text>
<text text-anchor="middle" x="790.67" y="-487.2" font-family="Comic Sans MS" font-size="14.00">TIER</text>
</g>
<!-- r0_0t1_2i0_1e0_3&#45;&#45;r0_0t1_2i0_1e0_3r -->
<g id="edge5" class="edge" data-name="r0_0t1_2i0_1e0_3--r0_0t1_2i0_1e0_3r">

<path fill="none" stroke="black" d="M718.16,-499.8C732.13,-499.8 749.34,-499.8 763.38,-499.8"/>
<text text-anchor="middle" x="741" y="-504" font-family="Comic Sans MS" font-size="14.00">R</text>
</g>
<!-- r0_0t1_2i1_3r -->
<g id="node15" class="node" pointer-events="visible" data-name="r0_0t1_2i1_3r">

<polygon fill="none" stroke="black" points="627.33,-470.8 573.33,-470.8 573.33,-434.8 627.33,-434.8 627.33,-470.8"/>
<text text-anchor="middle" x="600.33" y="-448.6" font-family="Comic Sans MS" font-size="14.00">+</text>
</g>
<!-- r0_0t1_2i1_3&#45;&#45;r0_0t1_2i1_3r -->
<g id="edge11" class="edge" data-name="r0_0t1_2i1_3--r0_0t1_2i1_3r">

<path fill="none" stroke="black" d="M527,-452.8C541.19,-452.8 558.77,-452.8 573.04,-452.8"/>
<text text-anchor="middle" x="550.28" y="-457" font-family="Comic Sans MS" font-size="14.00">R</text>
</g>
<!-- r0_0t1_2i1_3r0_1 -->
<g id="node16" class="node" pointer-events="visible" data-name="r0_0t1_2i1_3r0_1">

<path fill="lightgrey" stroke="black" stroke-width="0" d="M706.33,-469.8C706.33,-469.8 676.33,-469.8 676.33,-469.8 670.33,-469.8 664.33,-463.8 664.33,-457.8 664.33,-457.8 664.33,-445.8 664.33,-445.8 664.33,-439.8 670.33,-433.8 676.33,-433.8 676.33,-433.8 706.33,-433.8 706.33,-433.8 712.33,-433.8 718.33,-439.8 718.33,-445.8 718.33,-445.8 718.33,-457.8 718.33,-457.8 718.33,-463.8 712.33,-469.8 706.33,-469.8"/>
<text text-anchor="middle" x="691.33" y="-447.6" font-family="Comic Sans MS" font-size="14.00">1</text>
</g>
<!-- r0_0t1_2i1_3r&#45;&#45;r0_0t1_2i1_3r0_1 -->
<g id="edge10" class="edge" data-name="r0_0t1_2i1_3r--r0_0t1_2i1_3r0_1">

<path fill="none" stroke="black" d="M627.55,-452.51C639.24,-452.37 652.97,-452.22 664.6,-452.09"/>
</g>
<!-- r0_0t1_2i1_3r0_1e -->
<g id="node17" class="node" pointer-events="visible" data-name="r0_0t1_2i1_3r0_1e">

<polygon fill="none" stroke="black" points="817.67,-471.4 763.67,-471.4 763.67,-430.2 817.67,-430.2 817.67,-471.4"/>
<text text-anchor="middle" x="790.67" y="-455" font-family="Comic Sans MS" font-size="14.00">+1</text>
<text text-anchor="middle" x="790.67" y="-438.2" font-family="Comic Sans MS" font-size="14.00">TIRE</text>
</g>
<!-- r0_0t1_2i1_3r0_1&#45;&#45;r0_0t1_2i1_3r0_1e -->
<g id="edge9" class="edge" data-name="r0_0t1_2i1_3r0_1--r0_0t1_2i1_3r0_1e">

<path fill="none" stroke="black" d="M718.16,-451.53C732.13,-451.39 749.34,-451.21 763.38,-451.07"/>
<text text-anchor="middle" x="741" y="-455" font-family="Comic Sans MS" font-size="14.00">E</text>
</g>
<!-- r1_1a -->
<g id="node19" class="node" pointer-events="visible" data-name="r1_1a">

<polygon fill="none" stroke="black" points="245.11,-326.8 191.11,-326.8 191.11,-290.8 245.11,-290.8 245.11,-326.8"/>
<text text-anchor="middle" x="218.11" y="-304.6" font-family="Comic Sans MS" font-size="14.00">+</text>
</g>
<!-- r1_1&#45;&#45;r1_1a -->
<g id="edge29" class="edge" data-name="r1_1--r1_1a">

<path fill="none" stroke="black" d="M144.78,-305.85C158.97,-306.43 176.55,-307.15 190.82,-307.73"/>
<text text-anchor="middle" x="168.06" y="-311" font-family="Comic Sans MS" font-size="14.00">A</text>
</g>
<!-- r1_1a0_2 -->
<g id="node20" class="node" pointer-events="visible" data-name="r1_1a0_2">

<path fill="lightgrey" stroke="black" stroke-width="0" d="M324.11,-371.8C324.11,-371.8 294.11,-371.8 294.11,-371.8 288.11,-371.8 282.11,-365.8 282.11,-359.8 282.11,-359.8 282.11,-347.8 282.11,-347.8 282.11,-341.8 288.11,-335.8 294.11,-335.8 294.11,-335.8 324.11,-335.8 324.11,-335.8 330.11,-335.8 336.11,-341.8 336.11,-347.8 336.11,-347.8 336.11,-359.8 336.11,-359.8 336.11,-365.8 330.11,-371.8 324.11,-371.8"/>
<text text-anchor="middle" x="309.11" y="-349.6" font-family="Comic Sans MS" font-size="14.00">2</text>
</g>
<!-- r1_1a&#45;&#45;r1_1a0_2 -->
<g id="edge24" class="edge" data-name="r1_1a--r1_1a0_2">

<path fill="none" stroke="black" d="M245.33,-322.06C257.02,-327.97 270.75,-334.91 282.38,-340.79"/>
</g>
<!-- r1_1a1_3 -->
<g id="node28" class="node" pointer-events="visible" data-name="r1_1a1_3">

<path fill="lightgrey" stroke="black" stroke-width="0" d="M324.11,-326.8C324.11,-326.8 294.11,-326.8 294.11,-326.8 288.11,-326.8 282.11,-320.8 282.11,-314.8 282.11,-314.8 282.11,-302.8 282.11,-302.8 282.11,-296.8 288.11,-290.8 294.11,-290.8 294.11,-290.8 324.11,-290.8 324.11,-290.8 330.11,-290.8 336.11,-296.8 336.11,-302.8 336.11,-302.8 336.11,-314.8 336.11,-314.8 336.11,-320.8 330.11,-326.8 324.11,-326.8"/>
<text text-anchor="middle" x="309.11" y="-304.6" font-family="Comic Sans MS" font-size="14.00">3</text>
</g>
<!-- r1_1a&#45;&#45;r1_1a1_3 -->
<g id="edge28" class="edge" data-name="r1_1a--r1_1a1_3">

<path fill="none" stroke="black" d="M245.33,-308.8C257.02,-308.8 270.75,-308.8 282.38,-308.8"/>
</g>
<!-- r1_1a0_2i -->
<g id="node21" class="node" pointer-events="visible" data-name="r1_1a0_2i">

<polygon fill="none" stroke="black" points="436.22,-375.8 382.22,-375.8 382.22,-339.8 436.22,-339.8 436.22,-375.8"/>
<text text-anchor="middle" x="409.22" y="-353.6" font-family="Comic Sans MS" font-size="14.00">+</text>
</g>
<!-- r1_1a0_2&#45;&#45;r1_1a0_2i -->
<g id="edge23" class="edge" data-name="r1_1a0_2--r1_1a0_2i">

<path fill="none" stroke="black" d="M335.89,-354.85C350.08,-355.43 367.66,-356.15 381.93,-356.73"/>
<text text-anchor="middle" x="359.17" y="-360" font-family="Comic Sans MS" font-size="14.00">I</text>
</g>
<!-- r1_1a0_2i0_0 -->
<g id="node22" class="node" pointer-events="visible" data-name="r1_1a0_2i0_0">

<path fill="lightgrey" stroke="black" stroke-width="0" d="M515.22,-421.8C515.22,-421.8 485.22,-421.8 485.22,-421.8 479.22,-421.8 473.22,-415.8 473.22,-409.8 473.22,-409.8 473.22,-397.8 473.22,-397.8 473.22,-391.8 479.22,-385.8 485.22,-385.8 485.22,-385.8 515.22,-385.8 515.22,-385.8 521.22,-385.8 527.22,-391.8 527.22,-397.8 527.22,-397.8 527.22,-409.8 527.22,-409.8 527.22,-415.8 521.22,-421.8 515.22,-421.8"/>
<text text-anchor="middle" x="500.22" y="-399.6" font-family="Comic Sans MS" font-size="14.00">0</text>
</g>
<!-- r1_1a0_2i&#45;&#45;r1_1a0_2i0_0 -->
<g id="edge18" class="edge" data-name="r1_1a0_2i--r1_1a0_2i0_0">

<path fill="none" stroke="black" d="M436.44,-371.35C448.13,-377.4 461.86,-384.49 473.49,-390.5"/>
</g>
<!-- r1_1a0_2i1_3 -->
<g id="node24" class="node" pointer-events="visible" data-name="r1_1a0_2i1_3">

<path fill="lightgrey" stroke="black" stroke-width="0" d="M515.22,-375.8C515.22,-375.8 485.22,-375.8 485.22,-375.8 479.22,-375.8 473.22,-369.8 473.22,-363.8 473.22,-363.8 473.22,-351.8 473.22,-351.8 473.22,-345.8 479.22,-339.8 485.22,-339.8 485.22,-339.8 515.22,-339.8 515.22,-339.8 521.22,-339.8 527.22,-345.8 527.22,-351.8 527.22,-351.8 527.22,-363.8 527.22,-363.8 527.22,-369.8 521.22,-375.8 515.22,-375.8"/>
<text text-anchor="middle" x="500.22" y="-353.6" font-family="Comic Sans MS" font-size="14.00">3</text>
</g>
<!-- r1_1a0_2i&#45;&#45;r1_1a0_2i1_3 -->
<g id="edge22" class="edge" data-name="r1_1a0_2i--r1_1a0_2i1_3">

<path fill="none" stroke="black" d="M436.44,-357.8C448.13,-357.8 461.86,-357.8 473.49,-357.8"/>
</g>
<!-- r1_1a0_2i0_0t -->
<g id="node23" class="node" pointer-events="visible" data-name="r1_1a0_2i0_0t">

<polygon fill="none" stroke="black" points="627.33,-427.4 573.33,-427.4 573.33,-386.2 627.33,-386.2 627.33,-427.4"/>
<text text-anchor="middle" x="600.33" y="-411" font-family="Comic Sans MS" font-size="14.00">+1</text>
<text text-anchor="middle" x="600.33" y="-394.2" font-family="Comic Sans MS" font-size="14.00">AIT</text>
</g>
<!-- r1_1a0_2i0_0&#45;&#45;r1_1a0_2i0_0t -->
<g id="edge17" class="edge" data-name="r1_1a0_2i0_0--r1_1a0_2i0_0t">

<path fill="none" stroke="black" d="M527,-404.59C541.19,-405.02 558.77,-405.56 573.04,-406"/>
<text text-anchor="middle" x="550.28" y="-409" font-family="Comic Sans MS" font-size="14.00">T</text>
</g>
<!-- r1_1a0_2i1_3r -->
<g id="node25" class="node" pointer-events="visible" data-name="r1_1a0_2i1_3r">

<polygon fill="none" stroke="black" points="627.33,-378.4 573.33,-378.4 573.33,-337.2 627.33,-337.2 627.33,-378.4"/>
<text text-anchor="middle" x="600.33" y="-362" font-family="Comic Sans MS" font-size="14.00">+1</text>
<text text-anchor="middle" x="600.33" y="-345.2" font-family="Comic Sans MS" font-size="14.00">AIR</text>
</g>
<!-- r1_1a0_2i1_3&#45;&#45;r1_1a0_2i1_3r -->
<g id="edge21" class="edge" data-name="r1_1a0_2i1_3--r1_1a0_2i1_3r">

<path fill="none" stroke="black" d="M527,-357.8C541.19,-357.8 558.77,-357.8 573.04,-357.8"/>
<text text-anchor="middle" x="550.28" y="-362" font-family="Comic Sans MS" font-size="14.00">R</text>
</g>
<!-- r1_1a0_2i1_3r0_0 -->
<g id="node26" class="node" pointer-events="visible" data-name="r1_1a0_2i1_3r0_0">

<path fill="lightgrey" stroke="black" stroke-width="0" d="M706.33,-375.8C706.33,-375.8 676.33,-375.8 676.33,-375.8 670.33,-375.8 664.33,-369.8 664.33,-363.8 664.33,-363.8 664.33,-351.8 664.33,-351.8 664.33,-345.8 670.33,-339.8 676.33,-339.8 676.33,-339.8 706.33,-339.8 706.33,-339.8 712.33,-339.8 718.33,-345.8 718.33,-351.8 718.33,-351.8 718.33,-363.8 718.33,-363.8 718.33,-369.8 712.33,-375.8 706.33,-375.8"/>
<text text-anchor="middle" x="691.33" y="-353.6" font-family="Comic Sans MS" font-size="14.00">0</text>
</g>
<!-- r1_1a0_2i1_3r&#45;&#45;r1_1a0_2i1_3r0_0 -->
<g id="edge20" class="edge" data-name="r1_1a0_2i1_3r--r1_1a0_2i1_3r0_0">

<path fill="none" stroke="black" d="M627.55,-357.8C639.24,-357.8 652.97,-357.8 664.6,-357.8"/>
</g>
<!-- r1_1a0_2i1_3r0_0t -->
<g id="node27" class="node" pointer-events="visible" data-name="r1_1a0_2i1_3r0_0t">

<polygon fill="none" stroke="black" points="817.67,-378.4 763.67,-378.4 763.67,-337.2 817.67,-337.2 817.67,-378.4"/>
<text text-anchor="middle" x="790.67" y="-362" font-family="Comic Sans MS" font-size="14.00">+1</text>
<text text-anchor="middle" x="790.67" y="-345.2" font-family="Comic Sans MS" font-size="14.00">AIRT</text>
</g>
<!-- r1_1a0_2i1_3r0_0&#45;&#45;r1_1a0_2i1_3r0_0t -->
<g id="edge19" class="edge" data-name="r1_1a0_2i1_3r0_0--r1_1a0_2i1_3r0_0t">

<path fill="none" stroke="black" d="M718.16,-357.8C732.13,-357.8 749.34,-357.8 763.38,-357.8"/>
<text text-anchor="middle" x="741" y="-362" font-family="Comic Sans MS" font-size="14.00">T</text>
</g>
<!-- r1_1a1_3r -->
<g id="node29" class="node" pointer-events="visible" data-name="r1_1a1_3r">

<polygon fill="none" stroke="black" points="436.22,-326.8 382.22,-326.8 382.22,-290.8 436.22,-290.8 436.22,-326.8"/>
<text text-anchor="middle" x="409.22" y="-304.6" font-family="Comic Sans MS" font-size="14.00">+</text>
</g>
<!-- r1_1a1_3&#45;&#45;r1_1a1_3r -->
<g id="edge27" class="edge" data-name="r1_1a1_3--r1_1a1_3r">

<path fill="none" stroke="black" d="M335.89,-308.8C350.08,-308.8 367.66,-308.8 381.93,-308.8"/>
<text text-anchor="middle" x="359.17" y="-313" font-family="Comic Sans MS" font-size="14.00">R</text>
</g>
<!-- r1_1a1_3r0_0 -->
<g id="node30" class="node" pointer-events="visible" data-name="r1_1a1_3r0_0">

<path fill="lightgrey" stroke="black" stroke-width="0" d="M515.22,-326.8C515.22,-326.8 485.22,-326.8 485.22,-326.8 479.22,-326.8 473.22,-320.8 473.22,-314.8 473.22,-314.8 473.22,-302.8 473.22,-302.8 473.22,-296.8 479.22,-290.8 485.22,-290.8 485.22,-290.8 515.22,-290.8 515.22,-290.8 521.22,-290.8 527.22,-296.8 527.22,-302.8 527.22,-302.8 527.22,-314.8 527.22,-314.8 527.22,-320.8 521.22,-326.8 515.22,-326.8"/>
<text text-anchor="middle" x="500.22" y="-304.6" font-family="Comic Sans MS" font-size="14.00">0</text>
</g>
<!-- r1_1a1_3r&#45;&#45;r1_1a1_3r0_0 -->
<g id="edge26" class="edge" data-name="r1_1a1_3r--r1_1a1_3r0_0">

<path fill="none" stroke="black" d="M436.44,-308.8C448.13,-308.8 461.86,-308.8 473.49,-308.8"/>
</g>
<!-- r1_1a1_3r0_0t -->
<g id="node31" class="node" pointer-events="visible" data-name="r1_1a1_3r0_0t">

<polygon fill="none" stroke="black" points="627.33,-329.4 573.33,-329.4 573.33,-288.2 627.33,-288.2 627.33,-329.4"/>
<text text-anchor="middle" x="600.33" y="-313" font-family="Comic Sans MS" font-size="14.00">+1</text>
<text text-anchor="middle" x="600.33" y="-296.2" font-family="Comic Sans MS" font-size="14.00">ART</text>
</g>
<!-- r1_1a1_3r0_0&#45;&#45;r1_1a1_3r0_0t -->
<g id="edge25" class="edge" data-name="r1_1a1_3r0_0--r1_1a1_3r0_0t">

<path fill="none" stroke="black" d="M527,-308.8C541.19,-308.8 558.77,-308.8 573.04,-308.8"/>
<text text-anchor="middle" x="550.28" y="-313" font-family="Comic Sans MS" font-size="14.00">T</text>
</g>
<!-- r2_2i -->
<g id="node33" class="node" pointer-events="visible" data-name="r2_2i">

<polygon fill="none" stroke="black" points="245.11,-277.8 191.11,-277.8 191.11,-241.8 245.11,-241.8 245.11,-277.8"/>
<text text-anchor="middle" x="218.11" y="-255.6" font-family="Comic Sans MS" font-size="14.00">+</text>
</g>
<!-- r2_2&#45;&#45;r2_2i -->
<g id="edge35" class="edge" data-name="r2_2--r2_2i">

<path fill="none" stroke="black" d="M144.78,-260.54C158.97,-260.39 176.55,-260.21 190.82,-260.07"/>
<text text-anchor="middle" x="168.06" y="-264" font-family="Comic Sans MS" font-size="14.00">I</text>
</g>
<!-- r2_2i0_3 -->
<g id="node34" class="node" pointer-events="visible" data-name="r2_2i0_3">

<path fill="lightgrey" stroke="black" stroke-width="0" d="M324.11,-277.8C324.11,-277.8 294.11,-277.8 294.11,-277.8 288.11,-277.8 282.11,-271.8 282.11,-265.8 282.11,-265.8 282.11,-253.8 282.11,-253.8 282.11,-247.8 288.11,-241.8 294.11,-241.8 294.11,-241.8 324.11,-241.8 324.11,-241.8 330.11,-241.8 336.11,-247.8 336.11,-253.8 336.11,-253.8 336.11,-265.8 336.11,-265.8 336.11,-271.8 330.11,-277.8 324.11,-277.8"/>
<text text-anchor="middle" x="309.11" y="-255.6" font-family="Comic Sans MS" font-size="14.00">3</text>
</g>
<!-- r2_2i&#45;&#45;r2_2i0_3 -->
<g id="edge34" class="edge" data-name="r2_2i--r2_2i0_3">

<path fill="none" stroke="black" d="M245.33,-259.8C257.02,-259.8 270.75,-259.8 282.38,-259.8"/>
</g>
<!-- r2_2i0_3r -->
<g id="node35" class="node" pointer-events="visible" data-name="r2_2i0_3r">

<polygon fill="none" stroke="black" points="436.22,-277.8 382.22,-277.8 382.22,-241.8 436.22,-241.8 436.22,-277.8"/>
<text text-anchor="middle" x="409.22" y="-255.6" font-family="Comic Sans MS" font-size="14.00">+</text>
</g>
<!-- r2_2i0_3&#45;&#45;r2_2i0_3r -->
<g id="edge33" class="edge" data-name="r2_2i0_3--r2_2i0_3r">

<path fill="none" stroke="black" d="M335.89,-259.8C350.08,-259.8 367.66,-259.8 381.93,-259.8"/>
<text text-anchor="middle" x="359.17" y="-264" font-family="Comic Sans MS" font-size="14.00">R</text>
</g>
<!-- r2_2i0_3r0_1 -->
<g id="node36" class="node" pointer-events="visible" data-name="r2_2i0_3r0_1">

<path fill="lightgrey" stroke="black" stroke-width="0" d="M515.22,-277.8C515.22,-277.8 485.22,-277.8 485.22,-277.8 479.22,-277.8 473.22,-271.8 473.22,-265.8 473.22,-265.8 473.22,-253.8 473.22,-253.8 473.22,-247.8 479.22,-241.8 485.22,-241.8 485.22,-241.8 515.22,-241.8 515.22,-241.8 521.22,-241.8 527.22,-247.8 527.22,-253.8 527.22,-253.8 527.22,-265.8 527.22,-265.8 527.22,-271.8 521.22,-277.8 515.22,-277.8"/>
<text text-anchor="middle" x="500.22" y="-255.6" font-family="Comic Sans MS" font-size="14.00">1</text>
</g>
<!-- r2_2i0_3r&#45;&#45;r2_2i0_3r0_1 -->
<g id="edge32" class="edge" data-name="r2_2i0_3r--r2_2i0_3r0_1">

<path fill="none" stroke="black" d="M436.44,-259.8C448.13,-259.8 461.86,-259.8 473.49,-259.8"/>
</g>
<!-- r2_2i0_3r0_1e -->
<g id="node37" class="node" pointer-events="visible" data-name="r2_2i0_3r0_1e">

<polygon fill="none" stroke="black" points="627.33,-280.4 573.33,-280.4 573.33,-239.2 627.33,-239.2 627.33,-280.4"/>
<text text-anchor="middle" x="600.33" y="-264" font-family="Comic Sans MS" font-size="14.00">+1</text>
<text text-anchor="middle" x="600.33" y="-247.2" font-family="Comic Sans MS" font-size="14.00">IRE</text>
</g>
<!-- r2_2i0_3r0_1&#45;&#45;r2_2i0_3r0_1e -->
<g id="edge31" class="edge" data-name="r2_2i0_3r0_1--r2_2i0_3r0_1e">

<path fill="none" stroke="black" d="M527,-259.8C541.19,-259.8 558.77,-259.8 573.04,-259.8"/>
<text text-anchor="middle" x="550.28" y="-264" font-family="Comic Sans MS" font-size="14.00">E</text>
</g>
<!-- r3_3r -->
<g id="node39" class="node" pointer-events="visible" data-name="r3_3r">

<polygon fill="none" stroke="black" points="245.11,-201.8 191.11,-201.8 191.11,-165.8 245.11,-165.8 245.11,-201.8"/>
<text text-anchor="middle" x="218.11" y="-179.6" font-family="Comic Sans MS" font-size="14.00">+</text>
</g>
<!-- r3_3&#45;&#45;r3_3r -->
<g id="edge54" class="edge" data-name="r3_3--r3_3r">

<path fill="none" stroke="black" d="M144.78,-208.13C158.97,-203.36 176.55,-197.44 190.82,-192.64"/>
<text text-anchor="middle" x="168.06" y="-205" font-family="Comic Sans MS" font-size="14.00">R</text>
</g>
<!-- r3_3r0_1 -->
<g id="node40" class="node" pointer-events="visible" data-name="r3_3r0_1">

<path fill="lightgrey" stroke="black" stroke-width="0" d="M324.11,-201.8C324.11,-201.8 294.11,-201.8 294.11,-201.8 288.11,-201.8 282.11,-195.8 282.11,-189.8 282.11,-189.8 282.11,-177.8 282.11,-177.8 282.11,-171.8 288.11,-165.8 294.11,-165.8 294.11,-165.8 324.11,-165.8 324.11,-165.8 330.11,-165.8 336.11,-171.8 336.11,-177.8 336.11,-177.8 336.11,-189.8 336.11,-189.8 336.11,-195.8 330.11,-201.8 324.11,-201.8"/>
<text text-anchor="middle" x="309.11" y="-179.6" font-family="Comic Sans MS" font-size="14.00">1</text>
</g>
<!-- r3_3r&#45;&#45;r3_3r0_1 -->
<g id="edge45" class="edge" data-name="r3_3r--r3_3r0_1">

<path fill="none" stroke="black" d="M245.33,-183.8C257.02,-183.8 270.75,-183.8 282.38,-183.8"/>
</g>
<!-- r3_3r1_2 -->
<g id="node49" class="node" pointer-events="visible" data-name="r3_3r1_2">

<path fill="lightgrey" stroke="black" stroke-width="0" d="M324.11,-151.8C324.11,-151.8 294.11,-151.8 294.11,-151.8 288.11,-151.8 282.11,-145.8 282.11,-139.8 282.11,-139.8 282.11,-127.8 282.11,-127.8 282.11,-121.8 288.11,-115.8 294.11,-115.8 294.11,-115.8 324.11,-115.8 324.11,-115.8 330.11,-115.8 336.11,-121.8 336.11,-127.8 336.11,-127.8 336.11,-139.8 336.11,-139.8 336.11,-145.8 330.11,-151.8 324.11,-151.8"/>
<text text-anchor="middle" x="309.11" y="-129.6" font-family="Comic Sans MS" font-size="14.00">2</text>
</g>
<!-- r3_3r&#45;&#45;r3_3r1_2 -->
<g id="edge53" class="edge" data-name="r3_3r--r3_3r1_2">

<path fill="none" stroke="black" d="M245.33,-169.07C257.02,-162.5 270.75,-154.79 282.38,-148.25"/>
</g>
<!-- r3_3r0_1a -->
<g id="node41" class="node" pointer-events="visible" data-name="r3_3r0_1a">

<polygon fill="none" stroke="black" points="436.22,-223.8 382.22,-223.8 382.22,-187.8 436.22,-187.8 436.22,-223.8"/>
<text text-anchor="middle" x="409.22" y="-201.6" font-family="Comic Sans MS" font-size="14.00">+</text>
</g>
<!-- r3_3r0_1&#45;&#45;r3_3r0_1a -->
<g id="edge39" class="edge" data-name="r3_3r0_1--r3_3r0_1a">

<path fill="none" stroke="black" d="M335.89,-189.58C350.08,-192.76 367.66,-196.7 381.93,-199.91"/>
<text text-anchor="middle" x="359.17" y="-199" font-family="Comic Sans MS" font-size="14.00">A</text>
</g>
<!-- r3_3r0_1e --><g id="node44" class="node" pointer-events="visible" data-name="r3_3r0_1e">

<polygon fill="none" stroke="black" points="436.22,-179.8 382.22,-179.8 382.22,-143.8 436.22,-143.8 436.22,-179.8"/>
<text text-anchor="middle" x="409.22" y="-157.6" font-family="Comic Sans MS" font-size="14.00">+</text>
</g><!-- r3_3r0_1&#45;&#45;r3_3r0_1e --><g id="edge44" class="edge" data-name="r3_3r0_1--r3_3r0_1e">

<path fill="none" stroke="black" d="M335.89,-178.02C350.08,-174.84 367.66,-170.9 381.93,-167.69"/>
<text text-anchor="middle" x="359.17" y="-177" font-family="Comic Sans MS" font-size="14.00">E</text>
</g><!-- r3_3r0_1a0_0 --><g id="node42" class="node" pointer-events="visible" data-name="r3_3r0_1a0_0">

<path fill="lightgrey" stroke="black" stroke-width="0" d="M515.22,-227.8C515.22,-227.8 485.22,-227.8 485.22,-227.8 479.22,-227.8 473.22,-221.8 473.22,-215.8 473.22,-215.8 473.22,-203.8 473.22,-203.8 473.22,-197.8 479.22,-191.8 485.22,-191.8 485.22,-191.8 515.22,-191.8 515.22,-191.8 521.22,-191.8 527.22,-197.8 527.22,-203.8 527.22,-203.8 527.22,-215.8 527.22,-215.8 527.22,-221.8 521.22,-227.8 515.22,-227.8"/>
<text text-anchor="middle" x="500.22" y="-205.6" font-family="Comic Sans MS" font-size="14.00">0</text>
</g><!-- r3_3r0_1a&#45;&#45;r3_3r0_1a0_0 --><g id="edge38" class="edge" data-name="r3_3r0_1a--r3_3r0_1a0_0">

<path fill="none" stroke="black" d="M436.44,-206.98C448.13,-207.5 461.86,-208.12 473.49,-208.64"/>
</g><!-- r3_3r0_1a0_0t --><g id="node43" class="node" pointer-events="visible" data-name="r3_3r0_1a0_0t">

<polygon fill="none" stroke="black" points="627.33,-231.4 573.33,-231.4 573.33,-190.2 627.33,-190.2 627.33,-231.4"/>
<text text-anchor="middle" x="600.33" y="-215" font-family="Comic Sans MS" font-size="14.00">+1</text>
<text text-anchor="middle" x="600.33" y="-198.2" font-family="Comic Sans MS" font-size="14.00">RAT</text>
</g><!-- r3_3r0_1a0_0&#45;&#45;r3_3r0_1a0_0t --><g id="edge37" class="edge" data-name="r3_3r0_1a0_0--r3_3r0_1a0_0t">

<path fill="none" stroke="black" d="M527,-210.06C541.19,-210.21 558.77,-210.39 573.04,-210.53"/>
<text text-anchor="middle" x="550.28" y="-214" font-family="Comic Sans MS" font-size="14.00">T</text>
</g><!-- r3_3r0_1e0_0 --><g id="node45" class="node" pointer-events="visible" data-name="r3_3r0_1e0_0">

<path fill="lightgrey" stroke="black" stroke-width="0" d="M515.22,-179.8C515.22,-179.8 485.22,-179.8 485.22,-179.8 479.22,-179.8 473.22,-173.8 473.22,-167.8 473.22,-167.8 473.22,-155.8 473.22,-155.8 473.22,-149.8 479.22,-143.8 485.22,-143.8 485.22,-143.8 515.22,-143.8 515.22,-143.8 521.22,-143.8 527.22,-149.8 527.22,-155.8 527.22,-155.8 527.22,-167.8 527.22,-167.8 527.22,-173.8 521.22,-179.8 515.22,-179.8"/>
<text text-anchor="middle" x="500.22" y="-157.6" font-family="Comic Sans MS" font-size="14.00">0</text>
</g><!-- r3_3r0_1e&#45;&#45;r3_3r0_1e0_0 --><g id="edge41" class="edge" data-name="r3_3r0_1e--r3_3r0_1e0_0">

<path fill="none" stroke="black" d="M436.44,-161.8C448.13,-161.8 461.86,-161.8 473.49,-161.8"/>
</g><!-- r3_3r0_1e1_2 --><g id="node47" class="node" pointer-events="visible" data-name="r3_3r0_1e1_2">

<path fill="lightgrey" stroke="black" stroke-width="0" d="M515.22,-133.8C515.22,-133.8 485.22,-133.8 485.22,-133.8 479.22,-133.8 473.22,-127.8 473.22,-121.8 473.22,-121.8 473.22,-109.8 473.22,-109.8 473.22,-103.8 479.22,-97.8 485.22,-97.8 485.22,-97.8 515.22,-97.8 515.22,-97.8 521.22,-97.8 527.22,-103.8 527.22,-109.8 527.22,-109.8 527.22,-121.8 527.22,-121.8 527.22,-127.8 521.22,-133.8 515.22,-133.8"/>
<text text-anchor="middle" x="500.22" y="-111.6" font-family="Comic Sans MS" font-size="14.00">2</text>
</g><!-- r3_3r0_1e&#45;&#45;r3_3r0_1e1_2 --><g id="edge43" class="edge" data-name="r3_3r0_1e--r3_3r0_1e1_2">

<path fill="none" stroke="black" d="M436.44,-148.25C448.13,-142.2 461.86,-135.11 473.49,-129.1"/>
</g><!-- r3_3r0_1e0_0t --><g id="node46" class="node" pointer-events="visible" data-name="r3_3r0_1e0_0t">

<polygon fill="none" stroke="black" points="627.33,-182.4 573.33,-182.4 573.33,-141.2 627.33,-141.2 627.33,-182.4"/>
<text text-anchor="middle" x="600.33" y="-166" font-family="Comic Sans MS" font-size="14.00">+1</text>
<text text-anchor="middle" x="600.33" y="-149.2" font-family="Comic Sans MS" font-size="14.00">RET</text>
</g><!-- r3_3r0_1e0_0&#45;&#45;r3_3r0_1e0_0t --><g id="edge40" class="edge" data-name="r3_3r0_1e0_0--r3_3r0_1e0_0t">

<path fill="none" stroke="black" d="M527,-161.8C541.19,-161.8 558.77,-161.8 573.04,-161.8"/>
<text text-anchor="middle" x="550.28" y="-166" font-family="Comic Sans MS" font-size="14.00">T</text>
</g><!-- r3_3r0_1e1_2i --><g id="node48" class="node" pointer-events="visible" data-name="r3_3r0_1e1_2i">

<polygon fill="none" stroke="black" points="627.33,-133.4 573.33,-133.4 573.33,-92.2 627.33,-92.2 627.33,-133.4"/>
<text text-anchor="middle" x="600.33" y="-117" font-family="Comic Sans MS" font-size="14.00">+1</text>
<text text-anchor="middle" x="600.33" y="-100.2" font-family="Comic Sans MS" font-size="14.00">REI</text>
</g><!-- r3_3r0_1e1_2&#45;&#45;r3_3r0_1e1_2i --><g id="edge42" class="edge" data-name="r3_3r0_1e1_2--r3_3r0_1e1_2i">

<path fill="none" stroke="black" d="M527,-115.01C541.19,-114.58 558.77,-114.04 573.04,-113.6"/>
<text text-anchor="middle" x="550.28" y="-118" font-family="Comic Sans MS" font-size="14.00">I</text>
</g><!-- r3_3r1_2i --><g id="node50" class="node" pointer-events="visible" data-name="r3_3r1_2i">

<polygon fill="none" stroke="black" points="436.22,-84.8 382.22,-84.8 382.22,-48.8 436.22,-48.8 436.22,-84.8"/>
<text text-anchor="middle" x="409.22" y="-62.6" font-family="Comic Sans MS" font-size="14.00">+</text>
</g><!-- r3_3r1_2&#45;&#45;r3_3r1_2i --><g id="edge52" class="edge" data-name="r3_3r1_2--r3_3r1_2i">

<path fill="none" stroke="black" d="M335.89,-116.2C350.08,-106.5 367.66,-94.5 381.93,-84.75"/>
<text text-anchor="middle" x="359.17" y="-106" font-family="Comic Sans MS" font-size="14.00">I</text>
</g><!-- r3_3r1_2i0_0 --><g id="node51" class="node" pointer-events="visible" data-name="r3_3r1_2i0_0">

<path fill="lightgrey" stroke="black" stroke-width="0" d="M515.22,-84.8C515.22,-84.8 485.22,-84.8 485.22,-84.8 479.22,-84.8 473.22,-78.8 473.22,-72.8 473.22,-72.8 473.22,-60.8 473.22,-60.8 473.22,-54.8 479.22,-48.8 485.22,-48.8 485.22,-48.8 515.22,-48.8 515.22,-48.8 521.22,-48.8 527.22,-54.8 527.22,-60.8 527.22,-60.8 527.22,-72.8 527.22,-72.8 527.22,-78.8 521.22,-84.8 515.22,-84.8"/>
<text text-anchor="middle" x="500.22" y="-62.6" font-family="Comic Sans MS" font-size="14.00">0</text>
</g><!-- r3_3r1_2i&#45;&#45;r3_3r1_2i0_0 --><g id="edge49" class="edge" data-name="r3_3r1_2i--r3_3r1_2i0_0">

<path fill="none" stroke="black" d="M436.44,-66.8C448.13,-66.8 461.86,-66.8 473.49,-66.8"/>
</g><!-- r3_3r1_2i1_1 --><g id="node55" class="node" pointer-events="visible" data-name="r3_3r1_2i1_1">

<path fill="lightgrey" stroke="black" stroke-width="0" d="M515.22,-40.8C515.22,-40.8 485.22,-40.8 485.22,-40.8 479.22,-40.8 473.22,-34.8 473.22,-28.8 473.22,-28.8 473.22,-16.8 473.22,-16.8 473.22,-10.8 479.22,-4.8 485.22,-4.8 485.22,-4.8 515.22,-4.8 515.22,-4.8 521.22,-4.8 527.22,-10.8 527.22,-16.8 527.22,-16.8 527.22,-28.8 527.22,-28.8 527.22,-34.8 521.22,-40.8 515.22,-40.8"/>
<text text-anchor="middle" x="500.22" y="-18.6" font-family="Comic Sans MS" font-size="14.00">1</text>
</g><!-- r3_3r1_2i&#45;&#45;r3_3r1_2i1_1 --><g id="edge51" class="edge" data-name="r3_3r1_2i--r3_3r1_2i1_1">

<path fill="none" stroke="black" d="M436.44,-53.84C448.13,-48.06 461.86,-41.27 473.49,-35.52"/>
</g><!-- r3_3r1_2i0_0t --><g id="node52" class="node" pointer-events="visible" data-name="r3_3r1_2i0_0t">

<polygon fill="none" stroke="black" points="627.33,-84.8 573.33,-84.8 573.33,-48.8 627.33,-48.8 627.33,-84.8"/>
<text text-anchor="middle" x="600.33" y="-62.6" font-family="Comic Sans MS" font-size="14.00">+</text>
</g><!-- r3_3r1_2i0_0&#45;&#45;r3_3r1_2i0_0t --><g id="edge48" class="edge" data-name="r3_3r1_2i0_0--r3_3r1_2i0_0t">

<path fill="none" stroke="black" d="M527,-66.8C541.19,-66.8 558.77,-66.8 573.04,-66.8"/>
<text text-anchor="middle" x="550.28" y="-71" font-family="Comic Sans MS" font-size="14.00">T</text>
</g><!-- r3_3r1_2i0_0t0_1 --><g id="node53" class="node" pointer-events="visible" data-name="r3_3r1_2i0_0t0_1">

<path fill="lightgrey" stroke="black" stroke-width="0" d="M706.33,-84.8C706.33,-84.8 676.33,-84.8 676.33,-84.8 670.33,-84.8 664.33,-78.8 664.33,-72.8 664.33,-72.8 664.33,-60.8 664.33,-60.8 664.33,-54.8 670.33,-48.8 676.33,-48.8 676.33,-48.8 706.33,-48.8 706.33,-48.8 712.33,-48.8 718.33,-54.8 718.33,-60.8 718.33,-60.8 718.33,-72.8 718.33,-72.8 718.33,-78.8 712.33,-84.8 706.33,-84.8"/>
<text text-anchor="middle" x="691.33" y="-62.6" font-family="Comic Sans MS" font-size="14.00">1</text>
</g><!-- r3_3r1_2i0_0t&#45;&#45;r3_3r1_2i0_0t0_1 --><g id="edge47" class="edge" data-name="r3_3r1_2i0_0t--r3_3r1_2i0_0t0_1">

<path fill="none" stroke="black" d="M627.55,-66.8C639.24,-66.8 652.97,-66.8 664.6,-66.8"/>
</g><!-- r3_3r1_2i0_0t0_1e --><g id="node54" class="node" pointer-events="visible" data-name="r3_3r1_2i0_0t0_1e">

<polygon fill="none" stroke="black" points="817.67,-87.4 763.67,-87.4 763.67,-46.2 817.67,-46.2 817.67,-87.4"/>
<text text-anchor="middle" x="790.67" y="-71" font-family="Comic Sans MS" font-size="14.00">+1</text>
<text text-anchor="middle" x="790.67" y="-54.2" font-family="Comic Sans MS" font-size="14.00">RITE</text>
</g><!-- r3_3r1_2i0_0t0_1&#45;&#45;r3_3r1_2i0_0t0_1e --><g id="edge46" class="edge" data-name="r3_3r1_2i0_0t0_1--r3_3r1_2i0_0t0_1e">

<path fill="none" stroke="black" d="M718.16,-66.8C732.13,-66.8 749.34,-66.8 763.38,-66.8"/>
<text text-anchor="middle" x="741" y="-71" font-family="Comic Sans MS" font-size="14.00">E</text>
</g><!-- r3_3r1_2i1_1a --><g id="node56" class="node" pointer-events="visible" data-name="r3_3r1_2i1_1a">

<polygon fill="none" stroke="black" points="627.33,-41.4 573.33,-41.4 573.33,-0.2 627.33,-0.2 627.33,-41.4"/>
<text text-anchor="middle" x="600.33" y="-25" font-family="Comic Sans MS" font-size="14.00">+1</text>
<text text-anchor="middle" x="600.33" y="-8.2" font-family="Comic Sans MS" font-size="14.00">RIA</text>
</g><!-- r3_3r1_2i1_1&#45;&#45;r3_3r1_2i1_1a --><g id="edge50" class="edge" data-name="r3_3r1_2i1_1--r3_3r1_2i1_1a">

<path fill="none" stroke="black" d="M527,-22.27C541.19,-21.99 558.77,-21.63 573.04,-21.34"/>
<text text-anchor="middle" x="550.28" y="-27" font-family="Comic Sans MS" font-size="14.00">A</text>
</g></g>
</svg>