<?xml version="1.0" standalone="no"?>
<svg xmlns="http://www.w3.org/2000/svg" xmlns:xlink="http://www.w3.org/1999/xlink" width="845pt" height="517pt" viewBox="0.00 0.00 844.56 517.00">
<g id="graph0" class="graph" transform="translate(4,513) scale(1)" data-name="">
<polygon fill="white" stroke="none" points="-4,4 -4,-513 840.56,-513 840.56,4 -4,4" style=""/>
<!-- r -->
<g id="node1" class="node" pointer-events="visible" data-name="r">

<polygon fill="none" stroke="black" points="72.84,-264 0.05,-264 0.05,-228 72.84,-228 72.84,-264" style=""/>
<text text-anchor="middle" x="36.45" y="-241.8" font-family="Comic Sans MS" font-size="14.00" style="">bound=13</text>
</g>
<!-- r0_0 -->
<g id="node2" class="node" pointer-events="visible" data-name="r0_0">

<path fill="lightgrey" stroke="black" stroke-width="0" d="M151.9,-380C151.9,-380 121.9,-380 121.9,-380 115.9,-380 109.9,-374 109.9,-368 109.9,-368 109.9,-356 109.9,-356 109.9,-350 115.9,-344 121.9,-344 121.9,-344 151.9,-344 151.9,-344 157.9,-344 163.9,-350 163.9,-356 163.9,-356 163.9,-368 163.9,-368 163.9,-374 157.9,-380 151.9,-380" style=""/>
<text text-anchor="middle" x="136.9" y="-357.8" font-family="Comic Sans MS" font-size="14.00" style="">4</text>
</g>
<!-- r&#45;&#45;r0_0 -->
<g id="edge16" class="edge" data-name="r--r0_0">

<path fill="none" stroke="black" d="M53.05,-264.38C71.59,-286.23 102.33,-322.45 120.69,-344.09" style=""/>
</g>
<!-- r1_1 -->
<g id="node18" class="node" pointer-events="visible" data-name="r1_1">

<path fill="lightgrey" stroke="black" stroke-width="0" d="M151.9,-294C151.9,-294 121.9,-294 121.9,-294 115.9,-294 109.9,-288 109.9,-282 109.9,-282 109.9,-270 109.9,-270 109.9,-264 115.9,-258 121.9,-258 121.9,-258 151.9,-258 151.9,-258 157.9,-258 163.9,-264 163.9,-270 163.9,-270 163.9,-282 163.9,-282 163.9,-288 157.9,-294 151.9,-294" style=""/>
<text text-anchor="middle" x="136.9" y="-271.8" font-family="Comic Sans MS" font-size="14.00" style="">4</text>
</g>
<!-- r&#45;&#45;r1_1 -->
<g id="edge30" class="edge" data-name="r--r1_1">

<path fill="none" stroke="black" d="M73.27,-256.92C85.47,-260.63 98.87,-264.72 110.13,-268.15" style=""/>
</g>
<!-- r2_2 -->
<g id="node32" class="node" pointer-events="visible" data-name="r2_2">

<path fill="lightgrey" stroke="black" stroke-width="0" d="M151.9,-251C151.9,-251 121.9,-251 121.9,-251 115.9,-251 109.9,-245 109.9,-239 109.9,-239 109.9,-227 109.9,-227 109.9,-221 115.9,-215 121.9,-215 121.9,-215 151.9,-215 151.9,-215 157.9,-215 163.9,-221 163.9,-227 163.9,-227 163.9,-239 163.9,-239 163.9,-245 157.9,-251 151.9,-251" style=""/>
<text text-anchor="middle" x="136.9" y="-228.8" font-family="Comic Sans MS" font-size="14.00" style="">1</text>
</g>
<!-- r&#45;&#45;r2_2 -->
<g id="edge36" class="edge" data-name="r--r2_2">

<path fill="none" stroke="black" d="M73.27,-241.27C85.47,-239.66 98.87,-237.89 110.13,-236.4" style=""/>
</g>
<!-- r3_3 -->
<g id="node38" class="node" pointer-events="visible" data-name="r3_3">

<path fill="lightgrey" stroke="black" stroke-width="0" d="M151.9,-208C151.9,-208 121.9,-208 121.9,-208 115.9,-208 109.9,-202 109.9,-196 109.9,-196 109.9,-184 109.9,-184 109.9,-178 115.9,-172 121.9,-172 121.9,-172 151.9,-172 151.9,-172 157.9,-172 163.9,-178 163.9,-184 163.9,-184 163.9,-196 163.9,-196 163.9,-202 157.9,-208 151.9,-208" style=""/>
<text text-anchor="middle" x="136.9" y="-185.8" font-family="Comic Sans MS" font-size="14.00" style="">4</text>
</g>
<!-- r&#45;&#45;r3_3 -->
<g id="edge55" class="edge" data-name="r--r3_3">

<path fill="none" stroke="black" d="M69.96,-227.51C82.95,-220.12 97.71,-211.72 109.96,-204.75" style=""/>
</g>
<!-- r0_0t -->
<g id="node3" class="node" pointer-events="visible" data-name="r0_0t">

<polygon fill="none" stroke="black" points="264.01,-425 210.01,-425 210.01,-389 264.01,-389 264.01,-425" style=""/>
<text text-anchor="middle" x="237.01" y="-402.8" font-family="Comic Sans MS" font-size="14.00" style="">4</text>
</g>
<!-- r0_0&#45;&#45;r0_0t -->
<g id="edge15" class="edge" data-name="r0_0--r0_0t">

<path fill="none" stroke="black" d="M163.67,-373.82C177.87,-380.33 195.44,-388.4 209.72,-394.94" style=""/>
<text text-anchor="middle" x="186.95" y="-389.2" font-family="Comic Sans MS" font-size="14.00" style="">T</text>
</g>
<!-- r0_0t0_1 -->
<g id="node4" class="node" pointer-events="visible" data-name="r0_0t0_1">

<path fill="lightgrey" stroke="black" stroke-width="0" d="M343.01,-479C343.01,-479 313.01,-479 313.01,-479 307.01,-479 301.01,-473 301.01,-467 301.01,-467 301.01,-455 301.01,-455 301.01,-449 307.01,-443 313.01,-443 313.01,-443 343.01,-443 343.01,-443 349.01,-443 355.01,-449 355.01,-455 355.01,-455 355.01,-467 355.01,-467 355.01,-473 349.01,-479 343.01,-479" style=""/>
<text text-anchor="middle" x="328.01" y="-456.8" font-family="Comic Sans MS" font-size="14.00" style="">1</text>
</g>
<!-- r0_0t&#45;&#45;r0_0t0_1 -->
<g id="edge4" class="edge" data-name="r0_0t--r0_0t0_1">

<path fill="none" stroke="black" d="M264.23,-422.91C275.92,-430 289.65,-438.33 301.28,-445.39" style=""/>
</g>
<!-- r0_0t1_2 -->
<g id="node8" class="node" pointer-events="visible" data-name="r0_0t1_2">

<path fill="lightgrey" stroke="black" stroke-width="0" d="M343.01,-425C343.01,-425 313.01,-425 313.01,-425 307.01,-425 301.01,-419 301.01,-413 301.01,-413 301.01,-401 301.01,-401 301.01,-395 307.01,-389 313.01,-389 313.01,-389 343.01,-389 343.01,-389 349.01,-389 355.01,-395 355.01,-401 355.01,-401 355.01,-413 355.01,-413 355.01,-419 349.01,-425 343.01,-425" style=""/>
<text text-anchor="middle" x="328.01" y="-402.8" font-family="Comic Sans MS" font-size="14.00" style="">3</text>
</g>
<!-- r0_0t&#45;&#45;r0_0t1_2 -->
<g id="edge14" class="edge" data-name="r0_0t--r0_0t1_2">

<path fill="none" stroke="black" d="M264.23,-407C275.92,-407 289.65,-407 301.28,-407" style=""/>
</g>
<!-- r0_0t0_1a -->
<g id="node5" class="node" pointer-events="visible" data-name="r0_0t0_1a">

<polygon fill="none" stroke="black" points="455.12,-505 401.12,-505 401.12,-469 455.12,-469 455.12,-505" style=""/>
<text text-anchor="middle" x="428.12" y="-482.8" font-family="Comic Sans MS" font-size="14.00" style="">1</text>
</g>
<!-- r0_0t0_1&#45;&#45;r0_0t0_1a -->
<g id="edge3" class="edge" data-name="r0_0t0_1--r0_0t0_1a">

<path fill="none" stroke="black" d="M354.78,-467.83C368.98,-471.59 386.55,-476.25 400.83,-480.03" style=""/>
<text text-anchor="middle" x="378.06" y="-478.2" font-family="Comic Sans MS" font-size="14.00" style="">A</text>
</g>
<!-- r0_0t0_1a0_3 -->
<g id="node6" class="node" pointer-events="visible" data-name="r0_0t0_1a0_3">

<path fill="lightgrey" stroke="black" stroke-width="0" d="M534.12,-509C534.12,-509 504.12,-509 504.12,-509 498.12,-509 492.12,-503 492.12,-497 492.12,-497 492.12,-485 492.12,-485 492.12,-479 498.12,-473 504.12,-473 504.12,-473 534.12,-473 534.12,-473 540.12,-473 546.12,-479 546.12,-485 546.12,-485 546.12,-497 546.12,-497 546.12,-503 540.12,-509 534.12,-509" style=""/>
<text text-anchor="middle" x="519.12" y="-486.8" font-family="Comic Sans MS" font-size="14.00" style="">1</text>
</g>
<!-- r0_0t0_1a&#45;&#45;r0_0t0_1a0_3 -->
<g id="edge2" class="edge" data-name="r0_0t0_1a--r0_0t0_1a0_3">

<path fill="none" stroke="black" d="M455.34,-488.18C467.03,-488.7 480.76,-489.32 492.39,-489.84" style=""/>
</g>
<!-- r0_0t0_1a0_3r -->
<g id="node7" class="node" pointer-events="visible" data-name="r0_0t0_1a0_3r">

<polygon fill="none" stroke="black" points="646.23,-509 592.23,-509 592.23,-473 646.23,-473 646.23,-509" style=""/>
<text text-anchor="middle" x="619.23" y="-486.8" font-family="Comic Sans MS" font-size="14.00" style="">1</text>
</g>
<!-- r0_0t0_1a0_3&#45;&#45;r0_0t0_1a0_3r -->
<g id="edge1" class="edge" data-name="r0_0t0_1a0_3--r0_0t0_1a0_3r">

<path fill="none" stroke="black" d="M545.89,-491C560.09,-491 577.67,-491 591.94,-491" style=""/>
<text text-anchor="middle" x="569.17" y="-495.2" font-family="Comic Sans MS" font-size="14.00" style="">R</text>
</g>
<!-- r0_0t1_2i -->
<g id="node9" class="node" pointer-events="visible" data-name="r0_0t1_2i">

<polygon fill="none" stroke="black" points="455.12,-425 401.12,-425 401.12,-389 455.12,-389 455.12,-425" style=""/>
<text text-anchor="middle" x="428.12" y="-402.8" font-family="Comic Sans MS" font-size="14.00" style="">3</text>
</g>
<!-- r0_0t1_2&#45;&#45;r0_0t1_2i -->
<g id="edge13" class="edge" data-name="r0_0t1_2--r0_0t1_2i">

<path fill="none" stroke="black" d="M354.78,-407C368.98,-407 386.55,-407 400.83,-407" style=""/>
<text text-anchor="middle" x="378.06" y="-411.2" font-family="Comic Sans MS" font-size="14.00" style="">I</text>
</g>
<!-- r0_0t1_2i0_1 -->
<g id="node10" class="node" pointer-events="visible" data-name="r0_0t1_2i0_1">

<path fill="lightgrey" stroke="black" stroke-width="0" d="M534.12,-466C534.12,-466 504.12,-466 504.12,-466 498.12,-466 492.12,-460 492.12,-454 492.12,-454 492.12,-442 492.12,-442 492.12,-436 498.12,-430 504.12,-430 504.12,-430 534.12,-430 534.12,-430 540.12,-430 546.12,-436 546.12,-442 546.12,-442 546.12,-454 546.12,-454 546.12,-460 540.12,-466 534.12,-466" style=""/>
<text text-anchor="middle" x="519.12" y="-443.8" font-family="Comic Sans MS" font-size="14.00" style="">2</text>
</g>
<!-- r0_0t1_2i&#45;&#45;r0_0t1_2i0_1 -->
<g id="edge8" class="edge" data-name="r0_0t1_2i--r0_0t1_2i0_1">

<path fill="none" stroke="black" d="M455.34,-419.08C467.03,-424.47 480.76,-430.79 492.39,-436.15" style=""/>
</g>
<!-- r0_0t1_2i1_3 -->
<g id="node14" class="node" pointer-events="visible" data-name="r0_0t1_2i1_3">

<path fill="lightgrey" stroke="black" stroke-width="0" d="M534.12,-423C534.12,-423 504.12,-423 504.12,-423 498.12,-423 492.12,-417 492.12,-411 492.12,-411 492.12,-399 492.12,-399 492.12,-393 498.12,-387 504.12,-387 504.12,-387 534.12,-387 534.12,-387 540.12,-387 546.12,-393 546.12,-399 546.12,-399 546.12,-411 546.12,-411 546.12,-417 540.12,-423 534.12,-423" style=""/>
<text text-anchor="middle" x="519.12" y="-400.8" font-family="Comic Sans MS" font-size="14.00" style="">1</text>
</g>
<!-- r0_0t1_2i&#45;&#45;r0_0t1_2i1_3 -->
<g id="edge12" class="edge" data-name="r0_0t1_2i--r0_0t1_2i1_3">

<path fill="none" stroke="black" d="M455.34,-406.41C467.03,-406.15 480.76,-405.84 492.39,-405.58" style=""/>
</g>
<!-- r0_0t1_2i0_1e -->
<g id="node11" class="node" pointer-events="visible" data-name="r0_0t1_2i0_1e">

<polygon fill="none" stroke="black" points="646.23,-466 592.23,-466 592.23,-430 646.23,-430 646.23,-466" style=""/>
<text text-anchor="middle" x="619.23" y="-443.8" font-family="Comic Sans MS" font-size="14.00" style="">2</text>
</g>
<!-- r0_0t1_2i0_1&#45;&#45;r0_0t1_2i0_1e -->
<g id="edge7" class="edge" data-name="r0_0t1_2i0_1--r0_0t1_2i0_1e">

<path fill="none" stroke="black" d="M545.89,-448C560.09,-448 577.67,-448 591.94,-448" style=""/>
<text text-anchor="middle" x="569.17" y="-452.2" font-family="Comic Sans MS" font-size="14.00" style="">E</text>
</g>
<!-- r0_0t1_2i0_1e0_3 -->
<g id="node12" class="node" pointer-events="visible" data-name="r0_0t1_2i0_1e0_3">

<path fill="lightgrey" stroke="black" stroke-width="0" d="M725.23,-466C725.23,-466 695.23,-466 695.23,-466 689.23,-466 683.23,-460 683.23,-454 683.23,-454 683.23,-442 683.23,-442 683.23,-436 689.23,-430 695.23,-430 695.23,-430 725.23,-430 725.23,-430 731.23,-430 737.23,-436 737.23,-442 737.23,-442 737.23,-454 737.23,-454 737.23,-460 731.23,-466 725.23,-466" style=""/>
<text text-anchor="middle" x="710.23" y="-443.8" font-family="Comic Sans MS" font-size="14.00" style="">1</text>
</g>
<!-- r0_0t1_2i0_1e&#45;&#45;r0_0t1_2i0_1e0_3 -->
<g id="edge6" class="edge" data-name="r0_0t1_2i0_1e--r0_0t1_2i0_1e0_3">

<path fill="none" stroke="black" d="M646.45,-448C658.14,-448 671.87,-448 683.5,-448" style=""/>
</g>
<!-- r0_0t1_2i0_1e0_3r -->
<g id="node13" class="node" pointer-events="visible" data-name="r0_0t1_2i0_1e0_3r">

<polygon fill="none" stroke="black" points="836.56,-466 782.56,-466 782.56,-430 836.56,-430 836.56,-466" style=""/>
<text text-anchor="middle" x="809.56" y="-443.8" font-family="Comic Sans MS" font-size="14.00" style="">1</text>
</g>
<!-- r0_0t1_2i0_1e0_3&#45;&#45;r0_0t1_2i0_1e0_3r -->
<g id="edge5" class="edge" data-name="r0_0t1_2i0_1e0_3--r0_0t1_2i0_1e0_3r">

<path fill="none" stroke="black" d="M737.06,-448C751.02,-448 768.24,-448 782.28,-448" style=""/>
<text text-anchor="middle" x="759.9" y="-452.2" font-family="Comic Sans MS" font-size="14.00" style="">R</text>
</g>
<!-- r0_0t1_2i1_3r -->
<g id="node15" class="node" pointer-events="visible" data-name="r0_0t1_2i1_3r">

<polygon fill="none" stroke="black" points="646.23,-423 592.23,-423 592.23,-387 646.23,-387 646.23,-423" style=""/>
<text text-anchor="middle" x="619.23" y="-400.8" font-family="Comic Sans MS" font-size="14.00" style="">1</text>
</g>
<!-- r0_0t1_2i1_3&#45;&#45;r0_0t1_2i1_3r -->
<g id="edge11" class="edge" data-name="r0_0t1_2i1_3--r0_0t1_2i1_3r">

<path fill="none" stroke="black" d="M545.89,-405C560.09,-405 577.67,-405 591.94,-405" style=""/>
<text text-anchor="middle" x="569.17" y="-409.2" font-family="Comic Sans MS" font-size="14.00" style="">R</text>
</g>
<!-- r0_0t1_2i1_3r0_1 -->
<g id="node16" class="node" pointer-events="visible" data-name="r0_0t1_2i1_3r0_1">

<path fill="lightgrey" stroke="black" stroke-width="0" d="M725.23,-423C725.23,-423 695.23,-423 695.23,-423 689.23,-423 683.23,-417 683.23,-411 683.23,-411 683.23,-399 683.23,-399 683.23,-393 689.23,-387 695.23,-387 695.23,-387 725.23,-387 725.23,-387 731.23,-387 737.23,-393 737.23,-399 737.23,-399 737.23,-411 737.23,-411 737.23,-417 731.23,-423 725.23,-423" style=""/>
<text text-anchor="middle" x="710.23" y="-400.8" font-family="Comic Sans MS" font-size="14.00" style="">1</text>
</g>
<!-- r0_0t1_2i1_3r&#45;&#45;r0_0t1_2i1_3r0_1 -->
<g id="edge10" class="edge" data-name="r0_0t1_2i1_3r--r0_0t1_2i1_3r0_1">

<path fill="none" stroke="black" d="M646.45,-405C658.14,-405 671.87,-405 683.5,-405" style=""/>
</g>
<!-- r0_0t1_2i1_3r0_1e -->
<g id="node17" class="node" pointer-events="visible" data-name="r0_0t1_2i1_3r0_1e">

<polygon fill="none" stroke="black" points="836.56,-423 782.56,-423 782.56,-387 836.56,-387 836.56,-423" style=""/>
<text text-anchor="middle" x="809.56" y="-400.8" font-family="Comic Sans MS" font-size="14.00" style="">1</text>
</g>
<!-- r0_0t1_2i1_3r0_1&#45;&#45;r0_0t1_2i1_3r0_1e -->
<g id="edge9" class="edge" data-name="r0_0t1_2i1_3r0_1--r0_0t1_2i1_3r0_1e">

<path fill="none" stroke="black" d="M737.06,-405C751.02,-405 768.24,-405 782.28,-405" style=""/>
<text text-anchor="middle" x="759.9" y="-409.2" font-family="Comic Sans MS" font-size="14.00" style="">E</text>
</g>
<!-- r1_1a -->
<g id="node19" class="node" pointer-events="visible" data-name="r1_1a">

<polygon fill="none" stroke="black" points="264.01,-294 210.01,-294 210.01,-258 264.01,-258 264.01,-294" style=""/>
<text text-anchor="middle" x="237.01" y="-271.8" font-family="Comic Sans MS" font-size="14.00" style="">4</text>
</g>
<!-- r1_1&#45;&#45;r1_1a -->
<g id="edge29" class="edge" data-name="r1_1--r1_1a">

<path fill="none" stroke="black" d="M163.67,-276C177.87,-276 195.44,-276 209.72,-276" style=""/>
<text text-anchor="middle" x="186.95" y="-280.2" font-family="Comic Sans MS" font-size="14.00" style="">A</text>
</g>
<!-- r1_1a0_2 -->
<g id="node20" class="node" pointer-events="visible" data-name="r1_1a0_2">

<path fill="lightgrey" stroke="black" stroke-width="0" d="M343.01,-337C343.01,-337 313.01,-337 313.01,-337 307.01,-337 301.01,-331 301.01,-325 301.01,-325 301.01,-313 301.01,-313 301.01,-307 307.01,-301 313.01,-301 313.01,-301 343.01,-301 343.01,-301 349.01,-301 355.01,-307 355.01,-313 355.01,-313 355.01,-325 355.01,-325 355.01,-331 349.01,-337 343.01,-337" style=""/>
<text text-anchor="middle" x="328.01" y="-314.8" font-family="Comic Sans MS" font-size="14.00" style="">3</text>
</g>
<!-- r1_1a&#45;&#45;r1_1a0_2 -->
<g id="edge24" class="edge" data-name="r1_1a--r1_1a0_2">

<path fill="none" stroke="black" d="M264.23,-288.67C275.92,-294.32 289.65,-300.95 301.28,-306.57" style=""/>
</g>
<!-- r1_1a1_3 -->
<g id="node28" class="node" pointer-events="visible" data-name="r1_1a1_3">

<path fill="lightgrey" stroke="black" stroke-width="0" d="M343.01,-294C343.01,-294 313.01,-294 313.01,-294 307.01,-294 301.01,-288 301.01,-282 301.01,-282 301.01,-270 301.01,-270 301.01,-264 307.01,-258 313.01,-258 313.01,-258 343.01,-258 343.01,-258 349.01,-258 355.01,-264 355.01,-270 355.01,-270 355.01,-282 355.01,-282 355.01,-288 349.01,-294 343.01,-294" style=""/>
<text text-anchor="middle" x="328.01" y="-271.8" font-family="Comic Sans MS" font-size="14.00" style="">1</text>
</g>
<!-- r1_1a&#45;&#45;r1_1a1_3 -->
<g id="edge28" class="edge" data-name="r1_1a--r1_1a1_3">

<path fill="none" stroke="black" d="M264.23,-276C275.92,-276 289.65,-276 301.28,-276" style=""/>
</g>
<!-- r1_1a0_2i -->
<g id="node21" class="node" pointer-events="visible" data-name="r1_1a0_2i">

<polygon fill="none" stroke="black" points="455.12,-337 401.12,-337 401.12,-301 455.12,-301 455.12,-337" style=""/>
<text text-anchor="middle" x="428.12" y="-314.8" font-family="Comic Sans MS" font-size="14.00" style="">3</text>
</g>
<!-- r1_1a0_2&#45;&#45;r1_1a0_2i -->
<g id="edge23" class="edge" data-name="r1_1a0_2--r1_1a0_2i">

<path fill="none" stroke="black" d="M354.78,-319C368.98,-319 386.55,-319 400.83,-319" style=""/>
<text text-anchor="middle" x="378.06" y="-323.2" font-family="Comic Sans MS" font-size="14.00" style="">I</text>
</g>
<!-- r1_1a0_2i0_0 -->
<g id="node22" class="node" pointer-events="visible" data-name="r1_1a0_2i0_0">

<path fill="lightgrey" stroke="black" stroke-width="0" d="M534.12,-380C534.12,-380 504.12,-380 504.12,-380 498.12,-380 492.12,-374 492.12,-368 492.12,-368 492.12,-356 492.12,-356 492.12,-350 498.12,-344 504.12,-344 504.12,-344 534.12,-344 534.12,-344 540.12,-344 546.12,-350 546.12,-356 546.12,-356 546.12,-368 546.12,-368 546.12,-374 540.12,-380 534.12,-380" style=""/>
<text text-anchor="middle" x="519.12" y="-357.8" font-family="Comic Sans MS" font-size="14.00" style="">1</text>
</g>
<!-- r1_1a0_2i&#45;&#45;r1_1a0_2i0_0 -->
<g id="edge18" class="edge" data-name="r1_1a0_2i--r1_1a0_2i0_0">

<path fill="none" stroke="black" d="M455.34,-331.67C467.03,-337.32 480.76,-343.95 492.39,-349.57" style=""/>
</g>
<!-- r1_1a0_2i1_3 -->
<g id="node24" class="node" pointer-events="visible" data-name="r1_1a0_2i1_3">

<path fill="lightgrey" stroke="black" stroke-width="0" d="M534.12,-337C534.12,-337 504.12,-337 504.12,-337 498.12,-337 492.12,-331 492.12,-325 492.12,-325 492.12,-313 492.12,-313 492.12,-307 498.12,-301 504.12,-301 504.12,-301 534.12,-301 534.12,-301 540.12,-301 546.12,-307 546.12,-313 546.12,-313 546.12,-325 546.12,-325 546.12,-331 540.12,-337 534.12,-337" style=""/>
<text text-anchor="middle" x="519.12" y="-314.8" font-family="Comic Sans MS" font-size="14.00" style="">2</text>
</g>
<!-- r1_1a0_2i&#45;&#45;r1_1a0_2i1_3 -->
<g id="edge22" class="edge" data-name="r1_1a0_2i--r1_1a0_2i1_3">

<path fill="none" stroke="black" d="M455.34,-319C467.03,-319 480.76,-319 492.39,-319" style=""/>
</g>
<!-- r1_1a0_2i0_0t -->
<g id="node23" class="node" pointer-events="visible" data-name="r1_1a0_2i0_0t">

<polygon fill="none" stroke="black" points="646.23,-380 592.23,-380 592.23,-344 646.23,-344 646.23,-380" style=""/>
<text text-anchor="middle" x="619.23" y="-357.8" font-family="Comic Sans MS" font-size="14.00" style="">1</text>
</g>
<!-- r1_1a0_2i0_0&#45;&#45;r1_1a0_2i0_0t -->
<g id="edge17" class="edge" data-name="r1_1a0_2i0_0--r1_1a0_2i0_0t">

<path fill="none" stroke="black" d="M545.89,-362C560.09,-362 577.67,-362 591.94,-362" style=""/>
<text text-anchor="middle" x="569.17" y="-366.2" font-family="Comic Sans MS" font-size="14.00" style="">T</text>
</g>
<!-- r1_1a0_2i1_3r -->
<g id="node25" class="node" pointer-events="visible" data-name="r1_1a0_2i1_3r">

<polygon fill="none" stroke="black" points="646.23,-337 592.23,-337 592.23,-301 646.23,-301 646.23,-337" style=""/>
<text text-anchor="middle" x="619.23" y="-314.8" font-family="Comic Sans MS" font-size="14.00" style="">2</text>
</g>
<!-- r1_1a0_2i1_3&#45;&#45;r1_1a0_2i1_3r -->
<g id="edge21" class="edge" data-name="r1_1a0_2i1_3--r1_1a0_2i1_3r">

<path fill="none" stroke="black" d="M545.89,-319C560.09,-319 577.67,-319 591.94,-319" style=""/>
<text text-anchor="middle" x="569.17" y="-323.2" font-family="Comic Sans MS" font-size="14.00" style="">R</text>
</g>
<!-- r1_1a0_2i1_3r0_0 -->
<g id="node26" class="node" pointer-events="visible" data-name="r1_1a0_2i1_3r0_0">

<path fill="lightgrey" stroke="black" stroke-width="0" d="M725.23,-337C725.23,-337 695.23,-337 695.23,-337 689.23,-337 683.23,-331 683.23,-325 683.23,-325 683.23,-313 683.23,-313 683.23,-307 689.23,-301 695.23,-301 695.23,-301 725.23,-301 725.23,-301 731.23,-301 737.23,-307 737.23,-313 737.23,-313 737.23,-325 737.23,-325 737.23,-331 731.23,-337 725.23,-337" style=""/>
<text text-anchor="middle" x="710.23" y="-314.8" font-family="Comic Sans MS" font-size="14.00" style="">1</text>
</g>
<!-- r1_1a0_2i1_3r&#45;&#45;r1_1a0_2i1_3r0_0 -->
<g id="edge20" class="edge" data-name="r1_1a0_2i1_3r--r1_1a0_2i1_3r0_0">

<path fill="none" stroke="black" d="M646.45,-319C658.14,-319 671.87,-319 683.5,-319" style=""/>
</g>
<!-- r1_1a0_2i1_3r0_0t -->
<g id="node27" class="node" pointer-events="visible" data-name="r1_1a0_2i1_3r0_0t">

<polygon fill="none" stroke="black" points="836.56,-337 782.56,-337 782.56,-301 836.56,-301 836.56,-337" style=""/>
<text text-anchor="middle" x="809.56" y="-314.8" font-family="Comic Sans MS" font-size="14.00" style="">1</text>
</g>
<!-- r1_1a0_2i1_3r0_0&#45;&#45;r1_1a0_2i1_3r0_0t -->
<g id="edge19" class="edge" data-name="r1_1a0_2i1_3r0_0--r1_1a0_2i1_3r0_0t">

<path fill="none" stroke="black" d="M737.06,-319C751.02,-319 768.24,-319 782.28,-319" style=""/>
<text text-anchor="middle" x="759.9" y="-323.2" font-family="Comic Sans MS" font-size="14.00" style="">T</text>
</g>
<!-- r1_1a1_3r -->
<g id="node29" class="node" pointer-events="visible" data-name="r1_1a1_3r">

<polygon fill="none" stroke="black" points="455.12,-294 401.12,-294 401.12,-258 455.12,-258 455.12,-294" style=""/>
<text text-anchor="middle" x="428.12" y="-271.8" font-family="Comic Sans MS" font-size="14.00" style="">1</text>
</g>
<!-- r1_1a1_3&#45;&#45;r1_1a1_3r -->
<g id="edge27" class="edge" data-name="r1_1a1_3--r1_1a1_3r">

<path fill="none" stroke="black" d="M354.78,-276C368.98,-276 386.55,-276 400.83,-276" style=""/>
<text text-anchor="middle" x="378.06" y="-280.2" font-family="Comic Sans MS" font-size="14.00" style="">R</text>
</g>
<!-- r1_1a1_3r0_0 -->
<g id="node30" class="node" pointer-events="visible" data-name="r1_1a1_3r0_0">

<path fill="lightgrey" stroke="black" stroke-width="0" d="M534.12,-294C534.12,-294 504.12,-294 504.12,-294 498.12,-294 492.12,-288 492.12,-282 492.12,-282 492.12,-270 492.12,-270 492.12,-264 498.12,-258 504.12,-258 504.12,-258 534.12,-258 534.12,-258 540.12,-258 546.12,-264 546.12,-270 546.12,-270 546.12,-282 546.12,-282 546.12,-288 540.12,-294 534.12,-294" style=""/>
<text text-anchor="middle" x="519.12" y="-271.8" font-family="Comic Sans MS" font-size="14.00" style="">1</text>
</g>
<!-- r1_1a1_3r&#45;&#45;r1_1a1_3r0_0 -->
<g id="edge26" class="edge" data-name="r1_1a1_3r--r1_1a1_3r0_0">

<path fill="none" stroke="black" d="M455.34,-276C467.03,-276 480.76,-276 492.39,-276" style=""/>
</g>
<!-- r1_1a1_3r0_0t -->
<g id="node31" class="node" pointer-events="visible" data-name="r1_1a1_3r0_0t">

<polygon fill="none" stroke="black" points="646.23,-294 592.23,-294 592.23,-258 646.23,-258 646.23,-294" style=""/>
<text text-anchor="middle" x="619.23" y="-271.8" font-family="Comic Sans MS" font-size="14.00" style="">1</text>
</g>
<!-- r1_1a1_3r0_0&#45;&#45;r1_1a1_3r0_0t -->
<g id="edge25" class="edge" data-name="r1_1a1_3r0_0--r1_1a1_3r0_0t">

<path fill="none" stroke="black" d="M545.89,-276C560.09,-276 577.67,-276 591.94,-276" style=""/>
<text text-anchor="middle" x="569.17" y="-280.2" font-family="Comic Sans MS" font-size="14.00" style="">T</text>
</g>
<!-- r2_2i -->
<g id="node33" class="node" pointer-events="visible" data-name="r2_2i">

<polygon fill="none" stroke="black" points="264.01,-251 210.01,-251 210.01,-215 264.01,-215 264.01,-251" style=""/>
<text text-anchor="middle" x="237.01" y="-228.8" font-family="Comic Sans MS" font-size="14.00" style="">1</text>
</g>
<!-- r2_2&#45;&#45;r2_2i -->
<g id="edge35" class="edge" data-name="r2_2--r2_2i">

<path fill="none" stroke="black" d="M163.67,-233C177.87,-233 195.44,-233 209.72,-233" style=""/>
<text text-anchor="middle" x="186.95" y="-237.2" font-family="Comic Sans MS" font-size="14.00" style="">I</text>
</g>
<!-- r2_2i0_3 -->
<g id="node34" class="node" pointer-events="visible" data-name="r2_2i0_3">

<path fill="lightgrey" stroke="black" stroke-width="0" d="M343.01,-251C343.01,-251 313.01,-251 313.01,-251 307.01,-251 301.01,-245 301.01,-239 301.01,-239 301.01,-227 301.01,-227 301.01,-221 307.01,-215 313.01,-215 313.01,-215 343.01,-215 343.01,-215 349.01,-215 355.01,-221 355.01,-227 355.01,-227 355.01,-239 355.01,-239 355.01,-245 349.01,-251 343.01,-251" style=""/>
<text text-anchor="middle" x="328.01" y="-228.8" font-family="Comic Sans MS" font-size="14.00" style="">1</text>
</g>
<!-- r2_2i&#45;&#45;r2_2i0_3 -->
<g id="edge34" class="edge" data-name="r2_2i--r2_2i0_3">

<path fill="none" stroke="black" d="M264.23,-233C275.92,-233 289.65,-233 301.28,-233" style=""/>
</g>
<!-- r2_2i0_3r -->
<g id="node35" class="node" pointer-events="visible" data-name="r2_2i0_3r">

<polygon fill="none" stroke="black" points="455.12,-251 401.12,-251 401.12,-215 455.12,-215 455.12,-251" style=""/>
<text text-anchor="middle" x="428.12" y="-228.8" font-family="Comic Sans MS" font-size="14.00" style="">1</text>
</g>
<!-- r2_2i0_3&#45;&#45;r2_2i0_3r -->
<g id="edge33" class="edge" data-name="r2_2i0_3--r2_2i0_3r">

<path fill="none" stroke="black" d="M354.78,-233C368.98,-233 386.55,-233 400.83,-233" style=""/>
<text text-anchor="middle" x="378.06" y="-237.2" font-family="Comic Sans MS" font-size="14.00" style="">R</text>
</g>
<!-- r2_2i0_3r0_1 -->
<g id="node36" class="node" pointer-events="visible" data-name="r2_2i0_3r0_1">

<path fill="lightgrey" stroke="black" stroke-width="0" d="M534.12,-251C534.12,-251 504.12,-251 504.12,-251 498.12,-251 492.12,-245 492.12,-239 492.12,-239 492.12,-227 492.12,-227 492.12,-221 498.12,-215 504.12,-215 504.12,-215 534.12,-215 534.12,-215 540.12,-215 546.12,-221 546.12,-227 546.12,-227 546.12,-239 546.12,-239 546.12,-245 540.12,-251 534.12,-251" style=""/>
<text text-anchor="middle" x="519.12" y="-228.8" font-family="Comic Sans MS" font-size="14.00" style="">1</text>
</g>
<!-- r2_2i0_3r&#45;&#45;r2_2i0_3r0_1 -->
<g id="edge32" class="edge" data-name="r2_2i0_3r--r2_2i0_3r0_1">

<path fill="none" stroke="black" d="M455.34,-233C467.03,-233 480.76,-233 492.39,-233" style=""/>
</g>
<!-- r2_2i0_3r0_1e -->
<g id="node37" class="node" pointer-events="visible" data-name="r2_2i0_3r0_1e">

<polygon fill="none" stroke="black" points="646.23,-251 592.23,-251 592.23,-215 646.23,-215 646.23,-251" style=""/>
<text text-anchor="middle" x="619.23" y="-228.8" font-family="Comic Sans MS" font-size="14.00" style="">1</text>
</g>
<!-- r2_2i0_3r0_1&#45;&#45;r2_2i0_3r0_1e -->
<g id="edge31" class="edge" data-name="r2_2i0_3r0_1--r2_2i0_3r0_1e">

<path fill="none" stroke="black" d="M545.89,-233C560.09,-233 577.67,-233 591.94,-233" style=""/>
<text text-anchor="middle" x="569.17" y="-237.2" font-family="Comic Sans MS" font-size="14.00" style="">E</text>
</g>
<!-- r3_3r -->
<g id="node39" class="node" pointer-events="visible" data-name="r3_3r">

<polygon fill="none" stroke="black" points="264.01,-187 210.01,-187 210.01,-151 264.01,-151 264.01,-187" style=""/>
<text text-anchor="middle" x="237.01" y="-164.8" font-family="Comic Sans MS" font-size="14.00" style="">4</text>
</g>
<!-- r3_3&#45;&#45;r3_3r -->
<g id="edge54" class="edge" data-name="r3_3--r3_3r">

<path fill="none" stroke="black" d="M163.67,-184.48C177.87,-181.44 195.44,-177.68 209.72,-174.63" style=""/>
<text text-anchor="middle" x="186.95" y="-184.2" font-family="Comic Sans MS" font-size="14.00" style="">R</text>
</g>
<!-- r3_3r0_1 -->
<g id="node40" class="node" pointer-events="visible" data-name="r3_3r0_1">

<path fill="lightgrey" stroke="black" stroke-width="0" d="M343.01,-187C343.01,-187 313.01,-187 313.01,-187 307.01,-187 301.01,-181 301.01,-175 301.01,-175 301.01,-163 301.01,-163 301.01,-157 307.01,-151 313.01,-151 313.01,-151 343.01,-151 343.01,-151 349.01,-151 355.01,-157 355.01,-163 355.01,-163 355.01,-175 355.01,-175 355.01,-181 349.01,-187 343.01,-187" style=""/>
<text text-anchor="middle" x="328.01" y="-164.8" font-family="Comic Sans MS" font-size="14.00" style="">2</text>
</g>
<!-- r3_3r&#45;&#45;r3_3r0_1 -->
<g id="edge45" class="edge" data-name="r3_3r--r3_3r0_1">

<path fill="none" stroke="black" d="M264.23,-169C275.92,-169 289.65,-169 301.28,-169" style=""/>
</g>
<!-- r3_3r1_2 -->
<g id="node49" class="node" pointer-events="visible" data-name="r3_3r1_2">

<path fill="lightgrey" stroke="black" stroke-width="0" d="M343.01,-137C343.01,-137 313.01,-137 313.01,-137 307.01,-137 301.01,-131 301.01,-125 301.01,-125 301.01,-113 301.01,-113 301.01,-107 307.01,-101 313.01,-101 313.01,-101 343.01,-101 343.01,-101 349.01,-101 355.01,-107 355.01,-113 355.01,-113 355.01,-125 355.01,-125 355.01,-131 349.01,-137 343.01,-137" style=""/>
<text text-anchor="middle" x="328.01" y="-114.8" font-family="Comic Sans MS" font-size="14.00" style="">2</text>
</g>
<!-- r3_3r&#45;&#45;r3_3r1_2 -->
<g id="edge53" class="edge" data-name="r3_3r--r3_3r1_2">

<path fill="none" stroke="black" d="M264.23,-154.27C275.92,-147.7 289.65,-139.99 301.28,-133.45" style=""/>
</g>
<!-- r3_3r0_1a -->
<g id="node41" class="node" pointer-events="visible" data-name="r3_3r0_1a">

<polygon fill="none" stroke="black" points="455.12,-208 401.12,-208 401.12,-172 455.12,-172 455.12,-208" style=""/>
<text text-anchor="middle" x="428.12" y="-185.8" font-family="Comic Sans MS" font-size="14.00" style="">1</text>
</g>
<!-- r3_3r0_1&#45;&#45;r3_3r0_1a -->
<g id="edge39" class="edge" data-name="r3_3r0_1--r3_3r0_1a">

<path fill="none" stroke="black" d="M354.78,-174.52C368.98,-177.56 386.55,-181.32 400.83,-184.37" style=""/>
<text text-anchor="middle" x="378.06" y="-184.2" font-family="Comic Sans MS" font-size="14.00" style="">A</text>
</g>
<!-- r3_3r0_1e -->
<g id="node44" class="node" pointer-events="visible" data-name="r3_3r0_1e">

<polygon fill="none" stroke="black" points="455.12,-165 401.12,-165 401.12,-129 455.12,-129 455.12,-165" style=""/>
<text text-anchor="middle" x="428.12" y="-142.8" font-family="Comic Sans MS" font-size="14.00" style="">2</text>
</g>
<!-- r3_3r0_1&#45;&#45;r3_3r0_1e -->
<g id="edge44" class="edge" data-name="r3_3r0_1--r3_3r0_1e">

<path fill="none" stroke="black" d="M354.78,-163.22C368.98,-160.04 386.55,-156.1 400.83,-152.89" style=""/>
<text text-anchor="middle" x="378.06" y="-162.2" font-family="Comic Sans MS" font-size="14.00" style="">E</text>
</g>
<!-- r3_3r0_1a0_0 -->
<g id="node42" class="node" pointer-events="visible" data-name="r3_3r0_1a0_0">

<path fill="lightgrey" stroke="black" stroke-width="0" d="M534.12,-208C534.12,-208 504.12,-208 504.12,-208 498.12,-208 492.12,-202 492.12,-196 492.12,-196 492.12,-184 492.12,-184 492.12,-178 498.12,-172 504.12,-172 504.12,-172 534.12,-172 534.12,-172 540.12,-172 546.12,-178 546.12,-184 546.12,-184 546.12,-196 546.12,-196 546.12,-202 540.12,-208 534.12,-208" style=""/>
<text text-anchor="middle" x="519.12" y="-185.8" font-family="Comic Sans MS" font-size="14.00" style="">1</text>
</g>
<!-- r3_3r0_1a&#45;&#45;r3_3r0_1a0_0 -->
<g id="edge38" class="edge" data-name="r3_3r0_1a--r3_3r0_1a0_0">

<path fill="none" stroke="black" d="M455.34,-190C467.03,-190 480.76,-190 492.39,-190" style=""/>
</g>
<!-- r3_3r0_1a0_0t -->
<g id="node43" class="node" pointer-events="visible" data-name="r3_3r0_1a0_0t">

<polygon fill="none" stroke="black" points="646.23,-208 592.23,-208 592.23,-172 646.23,-172 646.23,-208" style=""/>
<text text-anchor="middle" x="619.23" y="-185.8" font-family="Comic Sans MS" font-size="14.00" style="">1</text>
</g>
<!-- r3_3r0_1a0_0&#45;&#45;r3_3r0_1a0_0t -->
<g id="edge37" class="edge" data-name="r3_3r0_1a0_0--r3_3r0_1a0_0t">

<path fill="none" stroke="black" d="M545.89,-190C560.09,-190 577.67,-190 591.94,-190" style=""/>
<text text-anchor="middle" x="569.17" y="-194.2" font-family="Comic Sans MS" font-size="14.00" style="">T</text>
</g>
<!-- r3_3r0_1e0_0 -->
<g id="node45" class="node" pointer-events="visible" data-name="r3_3r0_1e0_0">

<path fill="lightgrey" stroke="black" stroke-width="0" d="M534.12,-165C534.12,-165 504.12,-165 504.12,-165 498.12,-165 492.12,-159 492.12,-153 492.12,-153 492.12,-141 492.12,-141 492.12,-135 498.12,-129 504.12,-129 504.12,-129 534.12,-129 534.12,-129 540.12,-129 546.12,-135 546.12,-141 546.12,-141 546.12,-153 546.12,-153 546.12,-159 540.12,-165 534.12,-165" style=""/>
<text text-anchor="middle" x="519.12" y="-142.8" font-family="Comic Sans MS" font-size="14.00" style="">1</text>
</g>
<!-- r3_3r0_1e&#45;&#45;r3_3r0_1e0_0 -->
<g id="edge41" class="edge" data-name="r3_3r0_1e--r3_3r0_1e0_0">

<path fill="none" stroke="black" d="M455.34,-147C467.03,-147 480.76,-147 492.39,-147" style=""/>
</g>
<!-- r3_3r0_1e1_2 -->
<g id="node47" class="node" pointer-events="visible" data-name="r3_3r0_1e1_2">

<path fill="lightgrey" stroke="black" stroke-width="0" d="M534.12,-122C534.12,-122 504.12,-122 504.12,-122 498.12,-122 492.12,-116 492.12,-110 492.12,-110 492.12,-98 492.12,-98 492.12,-92 498.12,-86 504.12,-86 504.12,-86 534.12,-86 534.12,-86 540.12,-86 546.12,-92 546.12,-98 546.12,-98 546.12,-110 546.12,-110 546.12,-116 540.12,-122 534.12,-122" style=""/>
<text text-anchor="middle" x="519.12" y="-99.8" font-family="Comic Sans MS" font-size="14.00" style="">1</text>
</g>
<!-- r3_3r0_1e&#45;&#45;r3_3r0_1e1_2 -->
<g id="edge43" class="edge" data-name="r3_3r0_1e--r3_3r0_1e1_2">

<path fill="none" stroke="black" d="M455.34,-134.33C467.03,-128.68 480.76,-122.05 492.39,-116.43" style=""/>
</g>
<!-- r3_3r0_1e0_0t -->
<g id="node46" class="node" pointer-events="visible" data-name="r3_3r0_1e0_0t">

<polygon fill="none" stroke="black" points="646.23,-165 592.23,-165 592.23,-129 646.23,-129 646.23,-165" style=""/>
<text text-anchor="middle" x="619.23" y="-142.8" font-family="Comic Sans MS" font-size="14.00" style="">1</text>
</g>
<!-- r3_3r0_1e0_0&#45;&#45;r3_3r0_1e0_0t -->
<g id="edge40" class="edge" data-name="r3_3r0_1e0_0--r3_3r0_1e0_0t">

<path fill="none" stroke="black" d="M545.89,-147C560.09,-147 577.67,-147 591.94,-147" style=""/>
<text text-anchor="middle" x="569.17" y="-151.2" font-family="Comic Sans MS" font-size="14.00" style="">T</text>
</g>
<!-- r3_3r0_1e1_2i -->
<g id="node48" class="node" pointer-events="visible" data-name="r3_3r0_1e1_2i">

<polygon fill="none" stroke="black" points="646.23,-122 592.23,-122 592.23,-86 646.23,-86 646.23,-122" style=""/>
<text text-anchor="middle" x="619.23" y="-99.8" font-family="Comic Sans MS" font-size="14.00" style="">1</text>
</g>
<!-- r3_3r0_1e1_2&#45;&#45;r3_3r0_1e1_2i -->
<g id="edge42" class="edge" data-name="r3_3r0_1e1_2--r3_3r0_1e1_2i">

<path fill="none" stroke="black" d="M545.89,-104C560.09,-104 577.67,-104 591.94,-104" style=""/>
<text text-anchor="middle" x="569.17" y="-108.2" font-family="Comic Sans MS" font-size="14.00" style="">I</text>
</g>
<!-- r3_3r1_2i -->
<g id="node50" class="node" pointer-events="visible" data-name="r3_3r1_2i">

<polygon fill="none" stroke="black" points="455.12,-79 401.12,-79 401.12,-43 455.12,-43 455.12,-79" style=""/>
<text text-anchor="middle" x="428.12" y="-56.8" font-family="Comic Sans MS" font-size="14.00" style="">2</text>
</g>
<!-- r3_3r1_2&#45;&#45;r3_3r1_2i -->
<g id="edge52" class="edge" data-name="r3_3r1_2--r3_3r1_2i">

<path fill="none" stroke="black" d="M354.78,-103.76C368.98,-95.37 386.55,-84.98 400.83,-76.54" style=""/>
<text text-anchor="middle" x="378.06" y="-95.2" font-family="Comic Sans MS" font-size="14.00" style="">I</text>
</g>
<!-- r3_3r1_2i0_0 -->
<g id="node51" class="node" pointer-events="visible" data-name="r3_3r1_2i0_0">

<path fill="lightgrey" stroke="black" stroke-width="0" d="M534.12,-79C534.12,-79 504.12,-79 504.12,-79 498.12,-79 492.12,-73 492.12,-67 492.12,-67 492.12,-55 492.12,-55 492.12,-49 498.12,-43 504.12,-43 504.12,-43 534.12,-43 534.12,-43 540.12,-43 546.12,-49 546.12,-55 546.12,-55 546.12,-67 546.12,-67 546.12,-73 540.12,-79 534.12,-79" style=""/>
<text text-anchor="middle" x="519.12" y="-56.8" font-family="Comic Sans MS" font-size="14.00" style="">1</text>
</g>
<!-- r3_3r1_2i&#45;&#45;r3_3r1_2i0_0 -->
<g id="edge49" class="edge" data-name="r3_3r1_2i--r3_3r1_2i0_0">

<path fill="none" stroke="black" d="M455.34,-61C467.03,-61 480.76,-61 492.39,-61" style=""/>
</g>
<!-- r3_3r1_2i1_1 -->
<g id="node55" class="node" pointer-events="visible" data-name="r3_3r1_2i1_1">

<path fill="lightgrey" stroke="black" stroke-width="0" d="M534.12,-36C534.12,-36 504.12,-36 504.12,-36 498.12,-36 492.12,-30 492.12,-24 492.12,-24 492.12,-12 492.12,-12 492.12,-6 498.12,0 504.12,0 504.12,0 534.12,0 534.12,0 540.12,0 546.12,-6 546.12,-12 546.12,-12 546.12,-24 546.12,-24 546.12,-30 540.12,-36 534.12,-36" style=""/>
<text text-anchor="middle" x="519.12" y="-13.8" font-family="Comic Sans MS" font-size="14.00" style="">1</text>
</g>
<!-- r3_3r1_2i&#45;&#45;r3_3r1_2i1_1 -->
<g id="edge51" class="edge" data-name="r3_3r1_2i--r3_3r1_2i1_1">

<path fill="none" stroke="black" d="M455.34,-48.33C467.03,-42.68 480.76,-36.05 492.39,-30.43" style=""/>
</g>
<!-- r3_3r1_2i0_0t -->
<g id="node52" class="node" pointer-events="visible" data-name="r3_3r1_2i0_0t">

<polygon fill="none" stroke="black" points="646.23,-79 592.23,-79 592.23,-43 646.23,-43 646.23,-79" style=""/>
<text text-anchor="middle" x="619.23" y="-56.8" font-family="Comic Sans MS" font-size="14.00" style="">1</text>
</g>
<!-- r3_3r1_2i0_0&#45;&#45;r3_3r1_2i0_0t -->
<g id="edge48" class="edge" data-name="r3_3r1_2i0_0--r3_3r1_2i0_0t">

<path fill="none" stroke="black" d="M545.89,-61C560.09,-61 577.67,-61 591.94,-61" style=""/>
<text text-anchor="middle" x="569.17" y="-65.2" font-family="Comic Sans MS" font-size="14.00" style="">T</text>
</g>
<!-- r3_3r1_2i0_0t0_1 -->
<g id="node53" class="node" pointer-events="visible" data-name="r3_3r1_2i0_0t0_1">

<path fill="lightgrey" stroke="black" stroke-width="0" d="M725.23,-79C725.23,-79 695.23,-79 695.23,-79 689.23,-79 683.23,-73 683.23,-67 683.23,-67 683.23,-55 683.23,-55 683.23,-49 689.23,-43 695.23,-43 695.23,-43 725.23,-43 725.23,-43 731.23,-43 737.23,-49 737.23,-55 737.23,-55 737.23,-67 737.23,-67 737.23,-73 731.23,-79 725.23,-79" style=""/>
<text text-anchor="middle" x="710.23" y="-56.8" font-family="Comic Sans MS" font-size="14.00" style="">1</text>
</g>
<!-- r3_3r1_2i0_0t&#45;&#45;r3_3r1_2i0_0t0_1 -->
<g id="edge47" class="edge" data-name="r3_3r1_2i0_0t--r3_3r1_2i0_0t0_1">

<path fill="none" stroke="black" d="M646.45,-61C658.14,-61 671.87,-61 683.5,-61" style=""/>
</g>
<!-- r3_3r1_2i0_0t0_1e -->
<g id="node54" class="node" pointer-events="visible" data-name="r3_3r1_2i0_0t0_1e">

<polygon fill="none" stroke="black" points="836.56,-79 782.56,-79 782.56,-43 836.56,-43 836.56,-79" style=""/>
<text text-anchor="middle" x="809.56" y="-56.8" font-family="Comic Sans MS" font-size="14.00" style="">1</text>
</g>
<!-- r3_3r1_2i0_0t0_1&#45;&#45;r3_3r1_2i0_0t0_1e -->
<g id="edge46" class="edge" data-name="r3_3r1_2i0_0t0_1--r3_3r1_2i0_0t0_1e">

<path fill="none" stroke="black" d="M737.06,-61C751.02,-61 768.24,-61 782.28,-61" style=""/>
<text text-anchor="middle" x="759.9" y="-65.2" font-family="Comic Sans MS" font-size="14.00" style="">E</text>
</g>
<!-- r3_3r1_2i1_1a -->
<g id="node56" class="node" pointer-events="visible" data-name="r3_3r1_2i1_1a">

<polygon fill="none" stroke="black" points="646.23,-36 592.23,-36 592.23,0 646.23,0 646.23,-36" style=""/>
<text text-anchor="middle" x="619.23" y="-13.8" font-family="Comic Sans MS" font-size="14.00" style="">1</text>
</g>
<!-- r3_3r1_2i1_1&#45;&#45;r3_3r1_2i1_1a -->
<g id="edge50" class="edge" data-name="r3_3r1_2i1_1--r3_3r1_2i1_1a">

<path fill="none" stroke="black" d="M545.89,-18C560.09,-18 577.67,-18 591.94,-18" style=""/>
<text text-anchor="middle" x="569.17" y="-22.2" font-family="Comic Sans MS" font-size="14.00" style="">A</text>
</g>
</g>
</svg>